<?xml version="1.0" encoding="UTF-8"?>
<xmeml version="4">
  <project>
    <name>Test Export</name>
    <children>
      <bin>
        <name>Lockwell - Agendas</name>
        <children>
          <clip frameBlend="FALSE" id="masterclip-1">
            <masterclipid>masterclip-1</masterclipid>
            <ismasterclip>TRUE</ismasterclip>
            <duration>150</duration>
            <rate>
              <timebase>30</timebase>
              <ntsc>TRUE</ntsc>
            </rate>
            <name>left_0.png</name>
            <media>
              <video>
                <track>
                  <clipitem frameBlend="FALSE" id="clipitem-1">
                    <masterclipid>masterclip-1</masterclipid>
                    <name>left_0.png</name>
                    <file id="file-1">
                      <name>left_0.png</name>
                      <pathurl>file://localhost/C%3a/netrunner/important%20stuff/overlays2/left_0.png</pathurl>
                      <rate>
                        <timebase>30</timebase>
                        <ntsc>TRUE</ntsc>
                      </rate>
                      <media>
                        <video>
                          <duration>18000</duration>
                          <samplecharacteristics>
                            <rate>
                              <timebase>30</timebase>
                              <ntsc>TRUE</ntsc>
                            </rate>
                            <width>1920</width>
                            <height>1080</height>
                            <anamorphic>FALSE</anamorphic>
                            <pixelaspectratio>square</pixelaspectratio>
                            <fielddominance>none</fielddominance>
                            <colordepth>24</colordepth>
                          </samplecharacteristics>
                        </video>
                      </media>
                    </file>
                  </clipitem>
                </track>
              </video>
            </media>
          </clip>
          <clip frameBlend="FALSE" id="masterclip-2">
            <masterclipid>masterclip-2</masterclipid>
            <ismasterclip>TRUE</ismasterclip>
            <duration>150</duration>
            <rate>
              <timebase>30</timebase>
              <ntsc>TRUE</ntsc>
            </rate>
            <name>right_0.png</name>
            <media>
              <video>
                <track>
                  <clipitem frameBlend="FALSE" id="clipitem-2">
                    <masterclipid>masterclip-2</masterclipid>
                    <name>right_0.png</name>
                    <file id="file-2">
                      <name>right_0.png</name>
                      <pathurl>file://localhost/C%3a/netrunner/important%20stuff/overlays2/right_0.png</pathurl>
                      <rate>
                        <timebase>30</timebase>
                        <ntsc>TRUE</ntsc>
                      </rate>
                      <media>
                        <video>
                          <duration>18000</duration>
                          <samplecharacteristics>
                            <rate>
                              <timebase>30</timebase>
                              <ntsc>TRUE</ntsc>
                            </rate>
                            <width>1920</width>
                            <height>1080</height>
                            <anamorphic>FALSE</anamorphic>
                            <pixelaspectratio>square</pixelaspectratio>
                            <fielddominance>none</fielddominance>
                            <colordepth>24</colordepth>
                          </samplecharacteristics>
                        </video>
                      </media>
                    </file>
                  </clipitem>
                </track>
              </video>
            </media>
          </clip>
          <clip frameBlend="FALSE" id="masterclip-3">
            <masterclipid>masterclip-3</masterclipid>
            <ismasterclip>TRUE</ismasterclip>
            <duration>150</duration>
            <rate>
              <timebase>30</timebase>
              <ntsc>TRUE</ntsc>
            </rate>
            <name>left_1.png</name>
            <media>
              <video>
                <track>
                  <clipitem frameBlend="FALSE" id="clipitem-3">
                    <masterclipid>masterclip-3</masterclipid>
                    <name>left_1.png</name>
                    <file id="file-3">
                      <name>left_1.png</name>
                      <pathurl>file://localhost/C%3a/netrunner/important%20stuff/overlays2/left_1.png</pathurl>
                      <rate>
                        <timebase>30</timebase>
                        <ntsc>TRUE</ntsc>
                      </rate>
                      <media>
                        <video>
                          <duration>18000</duration>
                          <samplecharacteristics>
                            <rate>
                              <timebase>30</timebase>
                              <ntsc>TRUE</ntsc>
                            </rate>
                            <width>1920</width>
                            <height>1080</height>
                            <anamorphic>FALSE</anamorphic>
                            <pixelaspectratio>square</pixelaspectratio>
                            <fielddominance>none</fielddominance>
                            <colordepth>24</colordepth>
                          </samplecharacteristics>
                        </video>
                      </media>
                    </file>
                  </clipitem>
                </track>
              </video>
            </media>
          </clip>
          <clip frameBlend="FALSE" id="masterclip-4">
            <masterclipid>masterclip-4</masterclipid>
            <ismasterclip>TRUE</ismasterclip>
            <duration>150</duration>
            <rate>
              <timebase>30</timebase>
              <ntsc>TRUE</ntsc>
            </rate>
            <name>right_1.png</name>
            <media>
              <video>
                <track>
                  <clipitem frameBlend="FALSE" id="clipitem-4">
                    <masterclipid>masterclip-4</masterclipid>
                    <name>right_1.png</name>
                    <file id="file-4">
                      <name>right_1.png</name>
                      <pathurl>file://localhost/C%3a/netrunner/important%20stuff/overlays2/right_1.png</pathurl>
                      <rate>
                        <timebase>30</timebase>
                        <ntsc>TRUE</ntsc>
                      </rate>
                      <media>
                        <video>
                          <duration>18000</duration>
                          <samplecharacteristics>
                            <rate>
                              <timebase>30</timebase>
                              <ntsc>TRUE</ntsc>
                            </rate>
                            <width>1920</width>
                            <height>1080</height>
                            <anamorphic>FALSE</anamorphic>
                            <pixelaspectratio>square</pixelaspectratio>
                            <fielddominance>none</fielddominance>
                            <colordepth>24</colordepth>
                          </samplecharacteristics>
                        </video>
                      </media>
                    </file>
                  </clipitem>
                </track>
              </video>
            </media>
          </clip>
          <clip frameBlend="FALSE" id="masterclip-5">
            <masterclipid>masterclip-5</masterclipid>
            <ismasterclip>TRUE</ismasterclip>
            <duration>150</duration>
            <rate>
              <timebase>30</timebase>
              <ntsc>TRUE</ntsc>
            </rate>
            <name>left_2.png</name>
            <media>
              <video>
                <track>
                  <clipitem frameBlend="FALSE" id="clipitem-5">
                    <masterclipid>masterclip-5</masterclipid>
                    <name>left_2.png</name>
                    <file id="file-5">
                      <name>left_2.png</name>
                      <pathurl>file://localhost/C%3a/netrunner/important%20stuff/overlays2/left_2.png</pathurl>
                      <rate>
                        <timebase>30</timebase>
                        <ntsc>TRUE</ntsc>
                      </rate>
                      <media>
                        <video>
                          <duration>18000</duration>
                          <samplecharacteristics>
                            <rate>
                              <timebase>30</timebase>
                              <ntsc>TRUE</ntsc>
                            </rate>
                            <width>1920</width>
                            <height>1080</height>
                            <anamorphic>FALSE</anamorphic>
                            <pixelaspectratio>square</pixelaspectratio>
                            <fielddominance>none</fielddominance>
                            <colordepth>24</colordepth>
                          </samplecharacteristics>
                        </video>
                      </media>
                    </file>
                  </clipitem>
                </track>
              </video>
            </media>
          </clip>
          <clip frameBlend="FALSE" id="masterclip-6">
            <masterclipid>masterclip-6</masterclipid>
            <ismasterclip>TRUE</ismasterclip>
            <duration>150</duration>
            <rate>
              <timebase>30</timebase>
              <ntsc>TRUE</ntsc>
            </rate>
            <name>right_2.png</name>
            <media>
              <video>
                <track>
                  <clipitem frameBlend="FALSE" id="clipitem-6">
                    <masterclipid>masterclip-6</masterclipid>
                    <name>right_2.png</name>
                    <file id="file-6">
                      <name>right_2.png</name>
                      <pathurl>file://localhost/C%3a/netrunner/important%20stuff/overlays2/right_2.png</pathurl>
                      <rate>
                        <timebase>30</timebase>
                        <ntsc>TRUE</ntsc>
                      </rate>
                      <media>
                        <video>
                          <duration>18000</duration>
                          <samplecharacteristics>
                            <rate>
                              <timebase>30</timebase>
                              <ntsc>TRUE</ntsc>
                            </rate>
                            <width>1920</width>
                            <height>1080</height>
                            <anamorphic>FALSE</anamorphic>
                            <pixelaspectratio>square</pixelaspectratio>
                            <fielddominance>none</fielddominance>
                            <colordepth>24</colordepth>
                          </samplecharacteristics>
                        </video>
                      </media>
                    </file>
                  </clipitem>
                </track>
              </video>
            </media>
          </clip>
          <clip frameBlend="FALSE" id="masterclip-7">
            <masterclipid>masterclip-7</masterclipid>
            <ismasterclip>TRUE</ismasterclip>
            <duration>150</duration>
            <rate>
              <timebase>30</timebase>
              <ntsc>TRUE</ntsc>
            </rate>
            <name>left_3.png</name>
            <media>
              <video>
                <track>
                  <clipitem frameBlend="FALSE" id="clipitem-7">
                    <masterclipid>masterclip-7</masterclipid>
                    <name>left_3.png</name>
                    <file id="file-7">
                      <name>left_3.png</name>
                      <pathurl>file://localhost/C%3a/netrunner/important%20stuff/overlays2/left_3.png</pathurl>
                      <rate>
                        <timebase>30</timebase>
                        <ntsc>TRUE</ntsc>
                      </rate>
                      <media>
                        <video>
                          <duration>18000</duration>
                          <samplecharacteristics>
                            <rate>
                              <timebase>30</timebase>
                              <ntsc>TRUE</ntsc>
                            </rate>
                            <width>1920</width>
                            <height>1080</height>
                            <anamorphic>FALSE</anamorphic>
                            <pixelaspectratio>square</pixelaspectratio>
                            <fielddominance>none</fielddominance>
                            <colordepth>24</colordepth>
                          </samplecharacteristics>
                        </video>
                      </media>
                    </file>
                  </clipitem>
                </track>
              </video>
            </media>
          </clip>
          <clip frameBlend="FALSE" id="masterclip-8">
            <masterclipid>masterclip-8</masterclipid>
            <ismasterclip>TRUE</ismasterclip>
            <duration>150</duration>
            <rate>
              <timebase>30</timebase>
              <ntsc>TRUE</ntsc>
            </rate>
            <name>right_3.png</name>
            <media>
              <video>
                <track>
                  <clipitem frameBlend="FALSE" id="clipitem-8">
                    <masterclipid>masterclip-8</masterclipid>
                    <name>right_3.png</name>
                    <file id="file-8">
                      <name>right_3.png</name>
                      <pathurl>file://localhost/C%3a/netrunner/important%20stuff/overlays2/right_3.png</pathurl>
                      <rate>
                        <timebase>30</timebase>
                        <ntsc>TRUE</ntsc>
                      </rate>
                      <media>
                        <video>
                          <duration>18000</duration>
                          <samplecharacteristics>
                            <rate>
                              <timebase>30</timebase>
                              <ntsc>TRUE</ntsc>
                            </rate>
                            <width>1920</width>
                            <height>1080</height>
                            <anamorphic>FALSE</anamorphic>
                            <pixelaspectratio>square</pixelaspectratio>
                            <fielddominance>none</fielddominance>
                            <colordepth>24</colordepth>
                          </samplecharacteristics>
                        </video>
                      </media>
                    </file>
                  </clipitem>
                </track>
              </video>
            </media>
          </clip>
          <clip frameBlend="FALSE" id="masterclip-9">
            <masterclipid>masterclip-9</masterclipid>
            <ismasterclip>TRUE</ismasterclip>
            <duration>150</duration>
            <rate>
              <timebase>30</timebase>
              <ntsc>TRUE</ntsc>
            </rate>
            <name>left_4.png</name>
            <media>
              <video>
                <track>
                  <clipitem frameBlend="FALSE" id="clipitem-9">
                    <masterclipid>masterclip-9</masterclipid>
                    <name>left_4.png</name>
                    <file id="file-9">
                      <name>left_4.png</name>
                      <pathurl>file://localhost/C%3a/netrunner/important%20stuff/overlays2/left_4.png</pathurl>
                      <rate>
                        <timebase>30</timebase>
                        <ntsc>TRUE</ntsc>
                      </rate>
                      <media>
                        <video>
                          <duration>18000</duration>
                          <samplecharacteristics>
                            <rate>
                              <timebase>30</timebase>
                              <ntsc>TRUE</ntsc>
                            </rate>
                            <width>1920</width>
                            <height>1080</height>
                            <anamorphic>FALSE</anamorphic>
                            <pixelaspectratio>square</pixelaspectratio>
                            <fielddominance>none</fielddominance>
                            <colordepth>24</colordepth>
                          </samplecharacteristics>
                        </video>
                      </media>
                    </file>
                  </clipitem>
                </track>
              </video>
            </media>
          </clip>
          <clip frameBlend="FALSE" id="masterclip-10">
            <masterclipid>masterclip-10</masterclipid>
            <ismasterclip>TRUE</ismasterclip>
            <duration>150</duration>
            <rate>
              <timebase>30</timebase>
              <ntsc>TRUE</ntsc>
            </rate>
            <name>right_4.png</name>
            <media>
              <video>
                <track>
                  <clipitem frameBlend="FALSE" id="clipitem-10">
                    <masterclipid>masterclip-10</masterclipid>
                    <name>right_4.png</name>
                    <file id="file-10">
                      <name>right_4.png</name>
                      <pathurl>file://localhost/C%3a/netrunner/important%20stuff/overlays2/right_4.png</pathurl>
                      <rate>
                        <timebase>30</timebase>
                        <ntsc>TRUE</ntsc>
                      </rate>
                      <media>
                        <video>
                          <duration>18000</duration>
                          <samplecharacteristics>
                            <rate>
                              <timebase>30</timebase>
                              <ntsc>TRUE</ntsc>
                            </rate>
                            <width>1920</width>
                            <height>1080</height>
                            <anamorphic>FALSE</anamorphic>
                            <pixelaspectratio>square</pixelaspectratio>
                            <fielddominance>none</fielddominance>
                            <colordepth>24</colordepth>
                          </samplecharacteristics>
                        </video>
                      </media>
                    </file>
                  </clipitem>
                </track>
              </video>
            </media>
          </clip>
          <clip frameBlend="FALSE" id="masterclip-11">
            <masterclipid>masterclip-11</masterclipid>
            <ismasterclip>TRUE</ismasterclip>
            <duration>150</duration>
            <rate>
              <timebase>30</timebase>
              <ntsc>TRUE</ntsc>
            </rate>
            <name>left_5.png</name>
            <media>
              <video>
                <track>
                  <clipitem frameBlend="FALSE" id="clipitem-11">
                    <masterclipid>masterclip-11</masterclipid>
                    <name>left_5.png</name>
                    <file id="file-11">
                      <name>left_5.png</name>
                      <pathurl>file://localhost/C%3a/netrunner/important%20stuff/overlays2/left_5.png</pathurl>
                      <rate>
                        <timebase>30</timebase>
                        <ntsc>TRUE</ntsc>
                      </rate>
                      <media>
                        <video>
                          <duration>18000</duration>
                          <samplecharacteristics>
                            <rate>
                              <timebase>30</timebase>
                              <ntsc>TRUE</ntsc>
                            </rate>
                            <width>1920</width>
                            <height>1080</height>
                            <anamorphic>FALSE</anamorphic>
                            <pixelaspectratio>square</pixelaspectratio>
                            <fielddominance>none</fielddominance>
                            <colordepth>24</colordepth>
                          </samplecharacteristics>
                        </video>
                      </media>
                    </file>
                  </clipitem>
                </track>
              </video>
            </media>
          </clip>
          <clip frameBlend="FALSE" id="masterclip-12">
            <masterclipid>masterclip-12</masterclipid>
            <ismasterclip>TRUE</ismasterclip>
            <duration>150</duration>
            <rate>
              <timebase>30</timebase>
              <ntsc>TRUE</ntsc>
            </rate>
            <name>right_5.png</name>
            <media>
              <video>
                <track>
                  <clipitem frameBlend="FALSE" id="clipitem-12">
                    <masterclipid>masterclip-12</masterclipid>
                    <name>right_5.png</name>
                    <file id="file-12">
                      <name>right_5.png</name>
                      <pathurl>file://localhost/C%3a/netrunner/important%20stuff/overlays2/right_5.png</pathurl>
                      <rate>
                        <timebase>30</timebase>
                        <ntsc>TRUE</ntsc>
                      </rate>
                      <media>
                        <video>
                          <duration>18000</duration>
                          <samplecharacteristics>
                            <rate>
                              <timebase>30</timebase>
                              <ntsc>TRUE</ntsc>
                            </rate>
                            <width>1920</width>
                            <height>1080</height>
                            <anamorphic>FALSE</anamorphic>
                            <pixelaspectratio>square</pixelaspectratio>
                            <fielddominance>none</fielddominance>
                            <colordepth>24</colordepth>
                          </samplecharacteristics>
                        </video>
                      </media>
                    </file>
                  </clipitem>
                </track>
              </video>
            </media>
          </clip>
          <clip frameBlend="FALSE" id="masterclip-13">
            <masterclipid>masterclip-13</masterclipid>
            <ismasterclip>TRUE</ismasterclip>
            <duration>150</duration>
            <rate>
              <timebase>30</timebase>
              <ntsc>TRUE</ntsc>
            </rate>
            <name>left_6.png</name>
            <media>
              <video>
                <track>
                  <clipitem frameBlend="FALSE" id="clipitem-13">
                    <masterclipid>masterclip-13</masterclipid>
                    <name>left_6.png</name>
                    <file id="file-13">
                      <name>left_6.png</name>
                      <pathurl>file://localhost/C%3a/netrunner/important%20stuff/overlays2/left_6.png</pathurl>
                      <rate>
                        <timebase>30</timebase>
                        <ntsc>TRUE</ntsc>
                      </rate>
                      <media>
                        <video>
                          <duration>18000</duration>
                          <samplecharacteristics>
                            <rate>
                              <timebase>30</timebase>
                              <ntsc>TRUE</ntsc>
                            </rate>
                            <width>1920</width>
                            <height>1080</height>
                            <anamorphic>FALSE</anamorphic>
                            <pixelaspectratio>square</pixelaspectratio>
                            <fielddominance>none</fielddominance>
                            <colordepth>24</colordepth>
                          </samplecharacteristics>
                        </video>
                      </media>
                    </file>
                  </clipitem>
                </track>
              </video>
            </media>
          </clip>
          <clip frameBlend="FALSE" id="masterclip-14">
            <masterclipid>masterclip-14</masterclipid>
            <ismasterclip>TRUE</ismasterclip>
            <duration>150</duration>
            <rate>
              <timebase>30</timebase>
              <ntsc>TRUE</ntsc>
            </rate>
            <name>right_6.png</name>
            <media>
              <video>
                <track>
                  <clipitem frameBlend="FALSE" id="clipitem-14">
                    <masterclipid>masterclip-14</masterclipid>
                    <name>right_6.png</name>
                    <file id="file-14">
                      <name>right_6.png</name>
                      <pathurl>file://localhost/C%3a/netrunner/important%20stuff/overlays2/right_6.png</pathurl>
                      <rate>
                        <timebase>30</timebase>
                        <ntsc>TRUE</ntsc>
                      </rate>
                      <media>
                        <video>
                          <duration>18000</duration>
                          <samplecharacteristics>
                            <rate>
                              <timebase>30</timebase>
                              <ntsc>TRUE</ntsc>
                            </rate>
                            <width>1920</width>
                            <height>1080</height>
                            <anamorphic>FALSE</anamorphic>
                            <pixelaspectratio>square</pixelaspectratio>
                            <fielddominance>none</fielddominance>
                            <colordepth>24</colordepth>
                          </samplecharacteristics>
                        </video>
                      </media>
                    </file>
                  </clipitem>
                </track>
              </video>
            </media>
          </clip>
          <clip frameBlend="FALSE" id="masterclip-15">
            <masterclipid>masterclip-15</masterclipid>
            <ismasterclip>TRUE</ismasterclip>
            <duration>150</duration>
            <rate>
              <timebase>30</timebase>
              <ntsc>TRUE</ntsc>
            </rate>
            <name>left_7.png</name>
            <media>
              <video>
                <track>
                  <clipitem frameBlend="FALSE" id="clipitem-15">
                    <masterclipid>masterclip-15</masterclipid>
                    <name>left_7.png</name>
                    <file id="file-15">
                      <name>left_7.png</name>
                      <pathurl>file://localhost/C%3a/netrunner/important%20stuff/overlays2/left_7.png</pathurl>
                      <rate>
                        <timebase>30</timebase>
                        <ntsc>TRUE</ntsc>
                      </rate>
                      <media>
                        <video>
                          <duration>18000</duration>
                          <samplecharacteristics>
                            <rate>
                              <timebase>30</timebase>
                              <ntsc>TRUE</ntsc>
                            </rate>
                            <width>1920</width>
                            <height>1080</height>
                            <anamorphic>FALSE</anamorphic>
                            <pixelaspectratio>square</pixelaspectratio>
                            <fielddominance>none</fielddominance>
                            <colordepth>24</colordepth>
                          </samplecharacteristics>
                        </video>
                      </media>
                    </file>
                  </clipitem>
                </track>
              </video>
            </media>
          </clip>
          <clip frameBlend="FALSE" id="masterclip-16">
            <masterclipid>masterclip-16</masterclipid>
            <ismasterclip>TRUE</ismasterclip>
            <duration>150</duration>
            <rate>
              <timebase>30</timebase>
              <ntsc>TRUE</ntsc>
            </rate>
            <name>right_7.png</name>
            <media>
              <video>
                <track>
                  <clipitem frameBlend="FALSE" id="clipitem-16">
                    <masterclipid>masterclip-16</masterclipid>
                    <name>right_7.png</name>
                    <file id="file-16">
                      <name>right_7.png</name>
                      <pathurl>file://localhost/C%3a/netrunner/important%20stuff/overlays2/right_7.png</pathurl>
                      <rate>
                        <timebase>30</timebase>
                        <ntsc>TRUE</ntsc>
                      </rate>
                      <media>
                        <video>
                          <duration>18000</duration>
                          <samplecharacteristics>
                            <rate>
                              <timebase>30</timebase>
                              <ntsc>TRUE</ntsc>
                            </rate>
                            <width>1920</width>
                            <height>1080</height>
                            <anamorphic>FALSE</anamorphic>
                            <pixelaspectratio>square</pixelaspectratio>
                            <fielddominance>none</fielddominance>
                            <colordepth>24</colordepth>
                          </samplecharacteristics>
                        </video>
                      </media>
                    </file>
                  </clipitem>
                </track>
              </video>
            </media>
          </clip>
          <clip frameBlend="FALSE" id="masterclip-17">
            <masterclipid>masterclip-17</masterclipid>
            <ismasterclip>TRUE</ismasterclip>
            <duration>150</duration>
            <rate>
              <timebase>30</timebase>
              <ntsc>TRUE</ntsc>
            </rate>
            <name>left_8.png</name>
            <media>
              <video>
                <track>
                  <clipitem frameBlend="FALSE" id="clipitem-17">
                    <masterclipid>masterclip-17</masterclipid>
                    <name>left_8.png</name>
                    <file id="file-17">
                      <name>left_8.png</name>
                      <pathurl>file://localhost/C%3a/netrunner/important%20stuff/overlays2/left_8.png</pathurl>
                      <rate>
                        <timebase>30</timebase>
                        <ntsc>TRUE</ntsc>
                      </rate>
                      <media>
                        <video>
                          <duration>18000</duration>
                          <samplecharacteristics>
                            <rate>
                              <timebase>30</timebase>
                              <ntsc>TRUE</ntsc>
                            </rate>
                            <width>1920</width>
                            <height>1080</height>
                            <anamorphic>FALSE</anamorphic>
                            <pixelaspectratio>square</pixelaspectratio>
                            <fielddominance>none</fielddominance>
                            <colordepth>24</colordepth>
                          </samplecharacteristics>
                        </video>
                      </media>
                    </file>
                  </clipitem>
                </track>
              </video>
            </media>
          </clip>
          <clip frameBlend="FALSE" id="masterclip-18">
            <masterclipid>masterclip-18</masterclipid>
            <ismasterclip>TRUE</ismasterclip>
            <duration>150</duration>
            <rate>
              <timebase>30</timebase>
              <ntsc>TRUE</ntsc>
            </rate>
            <name>right_8.png</name>
            <media>
              <video>
                <track>
                  <clipitem frameBlend="FALSE" id="clipitem-18">
                    <masterclipid>masterclip-18</masterclipid>
                    <name>right_8.png</name>
                    <file id="file-18">
                      <name>right_8.png</name>
                      <pathurl>file://localhost/C%3a/netrunner/important%20stuff/overlays2/right_8.png</pathurl>
                      <rate>
                        <timebase>30</timebase>
                        <ntsc>TRUE</ntsc>
                      </rate>
                      <media>
                        <video>
                          <duration>18000</duration>
                          <samplecharacteristics>
                            <rate>
                              <timebase>30</timebase>
                              <ntsc>TRUE</ntsc>
                            </rate>
                            <width>1920</width>
                            <height>1080</height>
                            <anamorphic>FALSE</anamorphic>
                            <pixelaspectratio>square</pixelaspectratio>
                            <fielddominance>none</fielddominance>
                            <colordepth>24</colordepth>
                          </samplecharacteristics>
                        </video>
                      </media>
                    </file>
                  </clipitem>
                </track>
              </video>
            </media>
          </clip>
          <clip frameBlend="FALSE" id="masterclip-19">
            <masterclipid>masterclip-19</masterclipid>
            <ismasterclip>TRUE</ismasterclip>
            <duration>150</duration>
            <rate>
              <timebase>30</timebase>
              <ntsc>TRUE</ntsc>
            </rate>
            <name>left_9.png</name>
            <media>
              <video>
                <track>
                  <clipitem frameBlend="FALSE" id="clipitem-19">
                    <masterclipid>masterclip-19</masterclipid>
                    <name>left_9.png</name>
                    <file id="file-19">
                      <name>left_9.png</name>
                      <pathurl>file://localhost/C%3a/netrunner/important%20stuff/overlays2/left_9.png</pathurl>
                      <rate>
                        <timebase>30</timebase>
                        <ntsc>TRUE</ntsc>
                      </rate>
                      <media>
                        <video>
                          <duration>18000</duration>
                          <samplecharacteristics>
                            <rate>
                              <timebase>30</timebase>
                              <ntsc>TRUE</ntsc>
                            </rate>
                            <width>1920</width>
                            <height>1080</height>
                            <anamorphic>FALSE</anamorphic>
                            <pixelaspectratio>square</pixelaspectratio>
                            <fielddominance>none</fielddominance>
                            <colordepth>24</colordepth>
                          </samplecharacteristics>
                        </video>
                      </media>
                    </file>
                  </clipitem>
                </track>
              </video>
            </media>
          </clip>
          <clip frameBlend="FALSE" id="masterclip-20">
            <masterclipid>masterclip-20</masterclipid>
            <ismasterclip>TRUE</ismasterclip>
            <duration>150</duration>
            <rate>
              <timebase>30</timebase>
              <ntsc>TRUE</ntsc>
            </rate>
            <name>right_9.png</name>
            <media>
              <video>
                <track>
                  <clipitem frameBlend="FALSE" id="clipitem-20">
                    <masterclipid>masterclip-20</masterclipid>
                    <name>right_9.png</name>
                    <file id="file-20">
                      <name>right_9.png</name>
                      <pathurl>file://localhost/C%3a/netrunner/important%20stuff/overlays2/right_9.png</pathurl>
                      <rate>
                        <timebase>30</timebase>
                        <ntsc>TRUE</ntsc>
                      </rate>
                      <media>
                        <video>
                          <duration>18000</duration>
                          <samplecharacteristics>
                            <rate>
                              <timebase>30</timebase>
                              <ntsc>TRUE</ntsc>
                            </rate>
                            <width>1920</width>
                            <height>1080</height>
                            <anamorphic>FALSE</anamorphic>
                            <pixelaspectratio>square</pixelaspectratio>
                            <fielddominance>none</fielddominance>
                            <colordepth>24</colordepth>
                          </samplecharacteristics>
                        </video>
                      </media>
                    </file>
                  </clipitem>
                </track>
              </video>
            </media>
          </clip>
        </children>
      </bin>
      <bin>
        <name>Lockwell - Credits</name>
        <children>
          <clip frameBlend="FALSE" id="masterclip-21">
            <masterclipid>masterclip-21</masterclipid>
            <ismasterclip>TRUE</ismasterclip>
            <duration>150</duration>
            <rate>
              <timebase>30</timebase>
              <ntsc>TRUE</ntsc>
            </rate>
            <name>credL_00.png</name>
            <media>
              <video>
                <track>
                  <clipitem frameBlend="FALSE" id="clipitem-21">
                    <masterclipid>masterclip-21</masterclipid>
                    <name>credL_00.png</name>
                    <file id="file-21">
                      <name>credL_00.png</name>
                      <pathurl>file://localhost/C%3a/netrunner/important%20stuff/credits/creditoverlays/credL_00.png</pathurl>
                      <rate>
                        <timebase>30</timebase>
                        <ntsc>TRUE</ntsc>
                      </rate>
                      <media>
                        <video>
                          <duration>18000</duration>
                          <samplecharacteristics>
                            <rate>
                              <timebase>30</timebase>
                              <ntsc>TRUE</ntsc>
                            </rate>
                            <width>1920</width>
                            <height>1080</height>
                            <anamorphic>FALSE</anamorphic>
                            <pixelaspectratio>square</pixelaspectratio>
                            <fielddominance>none</fielddominance>
                            <colordepth>24</colordepth>
                          </samplecharacteristics>
                        </video>
                      </media>
                    </file>
                  </clipitem>
                </track>
              </video>
            </media>
          </clip>
          <clip frameBlend="FALSE" id="masterclip-22">
            <masterclipid>masterclip-22</masterclipid>
            <ismasterclip>TRUE</ismasterclip>
            <duration>150</duration>
            <rate>
              <timebase>30</timebase>
              <ntsc>TRUE</ntsc>
            </rate>
            <name>credR_00.png</name>
            <media>
              <video>
                <track>
                  <clipitem frameBlend="FALSE" id="clipitem-22">
                    <masterclipid>masterclip-22</masterclipid>
                    <name>credR_00.png</name>
                    <file id="file-22">
                      <name>credR_00.png</name>
                      <pathurl>file://localhost/C%3a/netrunner/important%20stuff/credits/creditoverlays/credR_00.png</pathurl>
                      <rate>
                        <timebase>30</timebase>
                        <ntsc>TRUE</ntsc>
                      </rate>
                      <media>
                        <video>
                          <duration>18000</duration>
                          <samplecharacteristics>
                            <rate>
                              <timebase>30</timebase>
                              <ntsc>TRUE</ntsc>
                            </rate>
                            <width>1920</width>
                            <height>1080</height>
                            <anamorphic>FALSE</anamorphic>
                            <pixelaspectratio>square</pixelaspectratio>
                            <fielddominance>none</fielddominance>
                            <colordepth>24</colordepth>
                          </samplecharacteristics>
                        </video>
                      </media>
                    </file>
                  </clipitem>
                </track>
              </video>
            </media>
          </clip>
          <clip frameBlend="FALSE" id="masterclip-23">
            <masterclipid>masterclip-23</masterclipid>
            <ismasterclip>TRUE</ismasterclip>
            <duration>150</duration>
            <rate>
              <timebase>30</timebase>
              <ntsc>TRUE</ntsc>
            </rate>
            <name>credL_01.png</name>
            <media>
              <video>
                <track>
                  <clipitem frameBlend="FALSE" id="clipitem-23">
                    <masterclipid>masterclip-23</masterclipid>
                    <name>credL_01.png</name>
                    <file id="file-23">
                      <name>credL_01.png</name>
                      <pathurl>file://localhost/C%3a/netrunner/important%20stuff/credits/creditoverlays/credL_01.png</pathurl>
                      <rate>
                        <timebase>30</timebase>
                        <ntsc>TRUE</ntsc>
                      </rate>
                      <media>
                        <video>
                          <duration>18000</duration>
                          <samplecharacteristics>
                            <rate>
                              <timebase>30</timebase>
                              <ntsc>TRUE</ntsc>
                            </rate>
                            <width>1920</width>
                            <height>1080</height>
                            <anamorphic>FALSE</anamorphic>
                            <pixelaspectratio>square</pixelaspectratio>
                            <fielddominance>none</fielddominance>
                            <colordepth>24</colordepth>
                          </samplecharacteristics>
                        </video>
                      </media>
                    </file>
                  </clipitem>
                </track>
              </video>
            </media>
          </clip>
          <clip frameBlend="FALSE" id="masterclip-24">
            <masterclipid>masterclip-24</masterclipid>
            <ismasterclip>TRUE</ismasterclip>
            <duration>150</duration>
            <rate>
              <timebase>30</timebase>
              <ntsc>TRUE</ntsc>
            </rate>
            <name>credR_01.png</name>
            <media>
              <video>
                <track>
                  <clipitem frameBlend="FALSE" id="clipitem-24">
                    <masterclipid>masterclip-24</masterclipid>
                    <name>credR_01.png</name>
                    <file id="file-24">
                      <name>credR_01.png</name>
                      <pathurl>file://localhost/C%3a/netrunner/important%20stuff/credits/creditoverlays/credR_01.png</pathurl>
                      <rate>
                        <timebase>30</timebase>
                        <ntsc>TRUE</ntsc>
                      </rate>
                      <media>
                        <video>
                          <duration>18000</duration>
                          <samplecharacteristics>
                            <rate>
                              <timebase>30</timebase>
                              <ntsc>TRUE</ntsc>
                            </rate>
                            <width>1920</width>
                            <height>1080</height>
                            <anamorphic>FALSE</anamorphic>
                            <pixelaspectratio>square</pixelaspectratio>
                            <fielddominance>none</fielddominance>
                            <colordepth>24</colordepth>
                          </samplecharacteristics>
                        </video>
                      </media>
                    </file>
                  </clipitem>
                </track>
              </video>
            </media>
          </clip>
          <clip frameBlend="FALSE" id="masterclip-25">
            <masterclipid>masterclip-25</masterclipid>
            <ismasterclip>TRUE</ismasterclip>
            <duration>150</duration>
            <rate>
              <timebase>30</timebase>
              <ntsc>TRUE</ntsc>
            </rate>
            <name>credL_02.png</name>
            <media>
              <video>
                <track>
                  <clipitem frameBlend="FALSE" id="clipitem-25">
                    <masterclipid>masterclip-25</masterclipid>
                    <name>credL_02.png</name>
                    <file id="file-25">
                      <name>credL_02.png</name>
                      <pathurl>file://localhost/C%3a/netrunner/important%20stuff/credits/creditoverlays/credL_02.png</pathurl>
                      <rate>
                        <timebase>30</timebase>
                        <ntsc>TRUE</ntsc>
                      </rate>
                      <media>
                        <video>
                          <duration>18000</duration>
                          <samplecharacteristics>
                            <rate>
                              <timebase>30</timebase>
                              <ntsc>TRUE</ntsc>
                            </rate>
                            <width>1920</width>
                            <height>1080</height>
                            <anamorphic>FALSE</anamorphic>
                            <pixelaspectratio>square</pixelaspectratio>
                            <fielddominance>none</fielddominance>
                            <colordepth>24</colordepth>
                          </samplecharacteristics>
                        </video>
                      </media>
                    </file>
                  </clipitem>
                </track>
              </video>
            </media>
          </clip>
          <clip frameBlend="FALSE" id="masterclip-26">
            <masterclipid>masterclip-26</masterclipid>
            <ismasterclip>TRUE</ismasterclip>
            <duration>150</duration>
            <rate>
              <timebase>30</timebase>
              <ntsc>TRUE</ntsc>
            </rate>
            <name>credR_02.png</name>
            <media>
              <video>
                <track>
                  <clipitem frameBlend="FALSE" id="clipitem-26">
                    <masterclipid>masterclip-26</masterclipid>
                    <name>credR_02.png</name>
                    <file id="file-26">
                      <name>credR_02.png</name>
                      <pathurl>file://localhost/C%3a/netrunner/important%20stuff/credits/creditoverlays/credR_02.png</pathurl>
                      <rate>
                        <timebase>30</timebase>
                        <ntsc>TRUE</ntsc>
                      </rate>
                      <media>
                        <video>
                          <duration>18000</duration>
                          <samplecharacteristics>
                            <rate>
                              <timebase>30</timebase>
                              <ntsc>TRUE</ntsc>
                            </rate>
                            <width>1920</width>
                            <height>1080</height>
                            <anamorphic>FALSE</anamorphic>
                            <pixelaspectratio>square</pixelaspectratio>
                            <fielddominance>none</fielddominance>
                            <colordepth>24</colordepth>
                          </samplecharacteristics>
                        </video>
                      </media>
                    </file>
                  </clipitem>
                </track>
              </video>
            </media>
          </clip>
          <clip frameBlend="FALSE" id="masterclip-27">
            <masterclipid>masterclip-27</masterclipid>
            <ismasterclip>TRUE</ismasterclip>
            <duration>150</duration>
            <rate>
              <timebase>30</timebase>
              <ntsc>TRUE</ntsc>
            </rate>
            <name>credL_03.png</name>
            <media>
              <video>
                <track>
                  <clipitem frameBlend="FALSE" id="clipitem-27">
                    <masterclipid>masterclip-27</masterclipid>
                    <name>credL_03.png</name>
                    <file id="file-27">
                      <name>credL_03.png</name>
                      <pathurl>file://localhost/C%3a/netrunner/important%20stuff/credits/creditoverlays/credL_03.png</pathurl>
                      <rate>
                        <timebase>30</timebase>
                        <ntsc>TRUE</ntsc>
                      </rate>
                      <media>
                        <video>
                          <duration>18000</duration>
                          <samplecharacteristics>
                            <rate>
                              <timebase>30</timebase>
                              <ntsc>TRUE</ntsc>
                            </rate>
                            <width>1920</width>
                            <height>1080</height>
                            <anamorphic>FALSE</anamorphic>
                            <pixelaspectratio>square</pixelaspectratio>
                            <fielddominance>none</fielddominance>
                            <colordepth>24</colordepth>
                          </samplecharacteristics>
                        </video>
                      </media>
                    </file>
                  </clipitem>
                </track>
              </video>
            </media>
          </clip>
          <clip frameBlend="FALSE" id="masterclip-28">
            <masterclipid>masterclip-28</masterclipid>
            <ismasterclip>TRUE</ismasterclip>
            <duration>150</duration>
            <rate>
              <timebase>30</timebase>
              <ntsc>TRUE</ntsc>
            </rate>
            <name>credR_03.png</name>
            <media>
              <video>
                <track>
                  <clipitem frameBlend="FALSE" id="clipitem-28">
                    <masterclipid>masterclip-28</masterclipid>
                    <name>credR_03.png</name>
                    <file id="file-28">
                      <name>credR_03.png</name>
                      <pathurl>file://localhost/C%3a/netrunner/important%20stuff/credits/creditoverlays/credR_03.png</pathurl>
                      <rate>
                        <timebase>30</timebase>
                        <ntsc>TRUE</ntsc>
                      </rate>
                      <media>
                        <video>
                          <duration>18000</duration>
                          <samplecharacteristics>
                            <rate>
                              <timebase>30</timebase>
                              <ntsc>TRUE</ntsc>
                            </rate>
                            <width>1920</width>
                            <height>1080</height>
                            <anamorphic>FALSE</anamorphic>
                            <pixelaspectratio>square</pixelaspectratio>
                            <fielddominance>none</fielddominance>
                            <colordepth>24</colordepth>
                          </samplecharacteristics>
                        </video>
                      </media>
                    </file>
                  </clipitem>
                </track>
              </video>
            </media>
          </clip>
          <clip frameBlend="FALSE" id="masterclip-29">
            <masterclipid>masterclip-29</masterclipid>
            <ismasterclip>TRUE</ismasterclip>
            <duration>150</duration>
            <rate>
              <timebase>30</timebase>
              <ntsc>TRUE</ntsc>
            </rate>
            <name>credL_04.png</name>
            <media>
              <video>
                <track>
                  <clipitem frameBlend="FALSE" id="clipitem-29">
                    <masterclipid>masterclip-29</masterclipid>
                    <name>credL_04.png</name>
                    <file id="file-29">
                      <name>credL_04.png</name>
                      <pathurl>file://localhost/C%3a/netrunner/important%20stuff/credits/creditoverlays/credL_04.png</pathurl>
                      <rate>
                        <timebase>30</timebase>
                        <ntsc>TRUE</ntsc>
                      </rate>
                      <media>
                        <video>
                          <duration>18000</duration>
                          <samplecharacteristics>
                            <rate>
                              <timebase>30</timebase>
                              <ntsc>TRUE</ntsc>
                            </rate>
                            <width>1920</width>
                            <height>1080</height>
                            <anamorphic>FALSE</anamorphic>
                            <pixelaspectratio>square</pixelaspectratio>
                            <fielddominance>none</fielddominance>
                            <colordepth>24</colordepth>
                          </samplecharacteristics>
                        </video>
                      </media>
                    </file>
                  </clipitem>
                </track>
              </video>
            </media>
          </clip>
          <clip frameBlend="FALSE" id="masterclip-30">
            <masterclipid>masterclip-30</masterclipid>
            <ismasterclip>TRUE</ismasterclip>
            <duration>150</duration>
            <rate>
              <timebase>30</timebase>
              <ntsc>TRUE</ntsc>
            </rate>
            <name>credR_04.png</name>
            <media>
              <video>
                <track>
                  <clipitem frameBlend="FALSE" id="clipitem-30">
                    <masterclipid>masterclip-30</masterclipid>
                    <name>credR_04.png</name>
                    <file id="file-30">
                      <name>credR_04.png</name>
                      <pathurl>file://localhost/C%3a/netrunner/important%20stuff/credits/creditoverlays/credR_04.png</pathurl>
                      <rate>
                        <timebase>30</timebase>
                        <ntsc>TRUE</ntsc>
                      </rate>
                      <media>
                        <video>
                          <duration>18000</duration>
                          <samplecharacteristics>
                            <rate>
                              <timebase>30</timebase>
                              <ntsc>TRUE</ntsc>
                            </rate>
                            <width>1920</width>
                            <height>1080</height>
                            <anamorphic>FALSE</anamorphic>
                            <pixelaspectratio>square</pixelaspectratio>
                            <fielddominance>none</fielddominance>
                            <colordepth>24</colordepth>
                          </samplecharacteristics>
                        </video>
                      </media>
                    </file>
                  </clipitem>
                </track>
              </video>
            </media>
          </clip>
          <clip frameBlend="FALSE" id="masterclip-31">
            <masterclipid>masterclip-31</masterclipid>
            <ismasterclip>TRUE</ismasterclip>
            <duration>150</duration>
            <rate>
              <timebase>30</timebase>
              <ntsc>TRUE</ntsc>
            </rate>
            <name>credL_05.png</name>
            <media>
              <video>
                <track>
                  <clipitem frameBlend="FALSE" id="clipitem-31">
                    <masterclipid>masterclip-31</masterclipid>
                    <name>credL_05.png</name>
                    <file id="file-31">
                      <name>credL_05.png</name>
                      <pathurl>file://localhost/C%3a/netrunner/important%20stuff/credits/creditoverlays/credL_05.png</pathurl>
                      <rate>
                        <timebase>30</timebase>
                        <ntsc>TRUE</ntsc>
                      </rate>
                      <media>
                        <video>
                          <duration>18000</duration>
                          <samplecharacteristics>
                            <rate>
                              <timebase>30</timebase>
                              <ntsc>TRUE</ntsc>
                            </rate>
                            <width>1920</width>
                            <height>1080</height>
                            <anamorphic>FALSE</anamorphic>
                            <pixelaspectratio>square</pixelaspectratio>
                            <fielddominance>none</fielddominance>
                            <colordepth>24</colordepth>
                          </samplecharacteristics>
                        </video>
                      </media>
                    </file>
                  </clipitem>
                </track>
              </video>
            </media>
          </clip>
          <clip frameBlend="FALSE" id="masterclip-32">
            <masterclipid>masterclip-32</masterclipid>
            <ismasterclip>TRUE</ismasterclip>
            <duration>150</duration>
            <rate>
              <timebase>30</timebase>
              <ntsc>TRUE</ntsc>
            </rate>
            <name>credR_05.png</name>
            <media>
              <video>
                <track>
                  <clipitem frameBlend="FALSE" id="clipitem-32">
                    <masterclipid>masterclip-32</masterclipid>
                    <name>credR_05.png</name>
                    <file id="file-32">
                      <name>credR_05.png</name>
                      <pathurl>file://localhost/C%3a/netrunner/important%20stuff/credits/creditoverlays/credR_05.png</pathurl>
                      <rate>
                        <timebase>30</timebase>
                        <ntsc>TRUE</ntsc>
                      </rate>
                      <media>
                        <video>
                          <duration>18000</duration>
                          <samplecharacteristics>
                            <rate>
                              <timebase>30</timebase>
                              <ntsc>TRUE</ntsc>
                            </rate>
                            <width>1920</width>
                            <height>1080</height>
                            <anamorphic>FALSE</anamorphic>
                            <pixelaspectratio>square</pixelaspectratio>
                            <fielddominance>none</fielddominance>
                            <colordepth>24</colordepth>
                          </samplecharacteristics>
                        </video>
                      </media>
                    </file>
                  </clipitem>
                </track>
              </video>
            </media>
          </clip>
          <clip frameBlend="FALSE" id="masterclip-33">
            <masterclipid>masterclip-33</masterclipid>
            <ismasterclip>TRUE</ismasterclip>
            <duration>150</duration>
            <rate>
              <timebase>30</timebase>
              <ntsc>TRUE</ntsc>
            </rate>
            <name>credL_06.png</name>
            <media>
              <video>
                <track>
                  <clipitem frameBlend="FALSE" id="clipitem-33">
                    <masterclipid>masterclip-33</masterclipid>
                    <name>credL_06.png</name>
                    <file id="file-33">
                      <name>credL_06.png</name>
                      <pathurl>file://localhost/C%3a/netrunner/important%20stuff/credits/creditoverlays/credL_06.png</pathurl>
                      <rate>
                        <timebase>30</timebase>
                        <ntsc>TRUE</ntsc>
                      </rate>
                      <media>
                        <video>
                          <duration>18000</duration>
                          <samplecharacteristics>
                            <rate>
                              <timebase>30</timebase>
                              <ntsc>TRUE</ntsc>
                            </rate>
                            <width>1920</width>
                            <height>1080</height>
                            <anamorphic>FALSE</anamorphic>
                            <pixelaspectratio>square</pixelaspectratio>
                            <fielddominance>none</fielddominance>
                            <colordepth>24</colordepth>
                          </samplecharacteristics>
                        </video>
                      </media>
                    </file>
                  </clipitem>
                </track>
              </video>
            </media>
          </clip>
          <clip frameBlend="FALSE" id="masterclip-34">
            <masterclipid>masterclip-34</masterclipid>
            <ismasterclip>TRUE</ismasterclip>
            <duration>150</duration>
            <rate>
              <timebase>30</timebase>
              <ntsc>TRUE</ntsc>
            </rate>
            <name>credR_06.png</name>
            <media>
              <video>
                <track>
                  <clipitem frameBlend="FALSE" id="clipitem-34">
                    <masterclipid>masterclip-34</masterclipid>
                    <name>credR_06.png</name>
                    <file id="file-34">
                      <name>credR_06.png</name>
                      <pathurl>file://localhost/C%3a/netrunner/important%20stuff/credits/creditoverlays/credR_06.png</pathurl>
                      <rate>
                        <timebase>30</timebase>
                        <ntsc>TRUE</ntsc>
                      </rate>
                      <media>
                        <video>
                          <duration>18000</duration>
                          <samplecharacteristics>
                            <rate>
                              <timebase>30</timebase>
                              <ntsc>TRUE</ntsc>
                            </rate>
                            <width>1920</width>
                            <height>1080</height>
                            <anamorphic>FALSE</anamorphic>
                            <pixelaspectratio>square</pixelaspectratio>
                            <fielddominance>none</fielddominance>
                            <colordepth>24</colordepth>
                          </samplecharacteristics>
                        </video>
                      </media>
                    </file>
                  </clipitem>
                </track>
              </video>
            </media>
          </clip>
          <clip frameBlend="FALSE" id="masterclip-35">
            <masterclipid>masterclip-35</masterclipid>
            <ismasterclip>TRUE</ismasterclip>
            <duration>150</duration>
            <rate>
              <timebase>30</timebase>
              <ntsc>TRUE</ntsc>
            </rate>
            <name>credL_07.png</name>
            <media>
              <video>
                <track>
                  <clipitem frameBlend="FALSE" id="clipitem-35">
                    <masterclipid>masterclip-35</masterclipid>
                    <name>credL_07.png</name>
                    <file id="file-35">
                      <name>credL_07.png</name>
                      <pathurl>file://localhost/C%3a/netrunner/important%20stuff/credits/creditoverlays/credL_07.png</pathurl>
                      <rate>
                        <timebase>30</timebase>
                        <ntsc>TRUE</ntsc>
                      </rate>
                      <media>
                        <video>
                          <duration>18000</duration>
                          <samplecharacteristics>
                            <rate>
                              <timebase>30</timebase>
                              <ntsc>TRUE</ntsc>
                            </rate>
                            <width>1920</width>
                            <height>1080</height>
                            <anamorphic>FALSE</anamorphic>
                            <pixelaspectratio>square</pixelaspectratio>
                            <fielddominance>none</fielddominance>
                            <colordepth>24</colordepth>
                          </samplecharacteristics>
                        </video>
                      </media>
                    </file>
                  </clipitem>
                </track>
              </video>
            </media>
          </clip>
          <clip frameBlend="FALSE" id="masterclip-36">
            <masterclipid>masterclip-36</masterclipid>
            <ismasterclip>TRUE</ismasterclip>
            <duration>150</duration>
            <rate>
              <timebase>30</timebase>
              <ntsc>TRUE</ntsc>
            </rate>
            <name>credR_07.png</name>
            <media>
              <video>
                <track>
                  <clipitem frameBlend="FALSE" id="clipitem-36">
                    <masterclipid>masterclip-36</masterclipid>
                    <name>credR_07.png</name>
                    <file id="file-36">
                      <name>credR_07.png</name>
                      <pathurl>file://localhost/C%3a/netrunner/important%20stuff/credits/creditoverlays/credR_07.png</pathurl>
                      <rate>
                        <timebase>30</timebase>
                        <ntsc>TRUE</ntsc>
                      </rate>
                      <media>
                        <video>
                          <duration>18000</duration>
                          <samplecharacteristics>
                            <rate>
                              <timebase>30</timebase>
                              <ntsc>TRUE</ntsc>
                            </rate>
                            <width>1920</width>
                            <height>1080</height>
                            <anamorphic>FALSE</anamorphic>
                            <pixelaspectratio>square</pixelaspectratio>
                            <fielddominance>none</fielddominance>
                            <colordepth>24</colordepth>
                          </samplecharacteristics>
                        </video>
                      </media>
                    </file>
                  </clipitem>
                </track>
              </video>
            </media>
          </clip>
          <clip frameBlend="FALSE" id="masterclip-37">
            <masterclipid>masterclip-37</masterclipid>
            <ismasterclip>TRUE</ismasterclip>
            <duration>150</duration>
            <rate>
              <timebase>30</timebase>
              <ntsc>TRUE</ntsc>
            </rate>
            <name>credL_08.png</name>
            <media>
              <video>
                <track>
                  <clipitem frameBlend="FALSE" id="clipitem-37">
                    <masterclipid>masterclip-37</masterclipid>
                    <name>credL_08.png</name>
                    <file id="file-37">
                      <name>credL_08.png</name>
                      <pathurl>file://localhost/C%3a/netrunner/important%20stuff/credits/creditoverlays/credL_08.png</pathurl>
                      <rate>
                        <timebase>30</timebase>
                        <ntsc>TRUE</ntsc>
                      </rate>
                      <media>
                        <video>
                          <duration>18000</duration>
                          <samplecharacteristics>
                            <rate>
                              <timebase>30</timebase>
                              <ntsc>TRUE</ntsc>
                            </rate>
                            <width>1920</width>
                            <height>1080</height>
                            <anamorphic>FALSE</anamorphic>
                            <pixelaspectratio>square</pixelaspectratio>
                            <fielddominance>none</fielddominance>
                            <colordepth>24</colordepth>
                          </samplecharacteristics>
                        </video>
                      </media>
                    </file>
                  </clipitem>
                </track>
              </video>
            </media>
          </clip>
          <clip frameBlend="FALSE" id="masterclip-38">
            <masterclipid>masterclip-38</masterclipid>
            <ismasterclip>TRUE</ismasterclip>
            <duration>150</duration>
            <rate>
              <timebase>30</timebase>
              <ntsc>TRUE</ntsc>
            </rate>
            <name>credR_08.png</name>
            <media>
              <video>
                <track>
                  <clipitem frameBlend="FALSE" id="clipitem-38">
                    <masterclipid>masterclip-38</masterclipid>
                    <name>credR_08.png</name>
                    <file id="file-38">
                      <name>credR_08.png</name>
                      <pathurl>file://localhost/C%3a/netrunner/important%20stuff/credits/creditoverlays/credR_08.png</pathurl>
                      <rate>
                        <timebase>30</timebase>
                        <ntsc>TRUE</ntsc>
                      </rate>
                      <media>
                        <video>
                          <duration>18000</duration>
                          <samplecharacteristics>
                            <rate>
                              <timebase>30</timebase>
                              <ntsc>TRUE</ntsc>
                            </rate>
                            <width>1920</width>
                            <height>1080</height>
                            <anamorphic>FALSE</anamorphic>
                            <pixelaspectratio>square</pixelaspectratio>
                            <fielddominance>none</fielddominance>
                            <colordepth>24</colordepth>
                          </samplecharacteristics>
                        </video>
                      </media>
                    </file>
                  </clipitem>
                </track>
              </video>
            </media>
          </clip>
          <clip frameBlend="FALSE" id="masterclip-39">
            <masterclipid>masterclip-39</masterclipid>
            <ismasterclip>TRUE</ismasterclip>
            <duration>150</duration>
            <rate>
              <timebase>30</timebase>
              <ntsc>TRUE</ntsc>
            </rate>
            <name>credL_09.png</name>
            <media>
              <video>
                <track>
                  <clipitem frameBlend="FALSE" id="clipitem-39">
                    <masterclipid>masterclip-39</masterclipid>
                    <name>credL_09.png</name>
                    <file id="file-39">
                      <name>credL_09.png</name>
                      <pathurl>file://localhost/C%3a/netrunner/important%20stuff/credits/creditoverlays/credL_09.png</pathurl>
                      <rate>
                        <timebase>30</timebase>
                        <ntsc>TRUE</ntsc>
                      </rate>
                      <media>
                        <video>
                          <duration>18000</duration>
                          <samplecharacteristics>
                            <rate>
                              <timebase>30</timebase>
                              <ntsc>TRUE</ntsc>
                            </rate>
                            <width>1920</width>
                            <height>1080</height>
                            <anamorphic>FALSE</anamorphic>
                            <pixelaspectratio>square</pixelaspectratio>
                            <fielddominance>none</fielddominance>
                            <colordepth>24</colordepth>
                          </samplecharacteristics>
                        </video>
                      </media>
                    </file>
                  </clipitem>
                </track>
              </video>
            </media>
          </clip>
          <clip frameBlend="FALSE" id="masterclip-40">
            <masterclipid>masterclip-40</masterclipid>
            <ismasterclip>TRUE</ismasterclip>
            <duration>150</duration>
            <rate>
              <timebase>30</timebase>
              <ntsc>TRUE</ntsc>
            </rate>
            <name>credR_09.png</name>
            <media>
              <video>
                <track>
                  <clipitem frameBlend="FALSE" id="clipitem-40">
                    <masterclipid>masterclip-40</masterclipid>
                    <name>credR_09.png</name>
                    <file id="file-40">
                      <name>credR_09.png</name>
                      <pathurl>file://localhost/C%3a/netrunner/important%20stuff/credits/creditoverlays/credR_09.png</pathurl>
                      <rate>
                        <timebase>30</timebase>
                        <ntsc>TRUE</ntsc>
                      </rate>
                      <media>
                        <video>
                          <duration>18000</duration>
                          <samplecharacteristics>
                            <rate>
                              <timebase>30</timebase>
                              <ntsc>TRUE</ntsc>
                            </rate>
                            <width>1920</width>
                            <height>1080</height>
                            <anamorphic>FALSE</anamorphic>
                            <pixelaspectratio>square</pixelaspectratio>
                            <fielddominance>none</fielddominance>
                            <colordepth>24</colordepth>
                          </samplecharacteristics>
                        </video>
                      </media>
                    </file>
                  </clipitem>
                </track>
              </video>
            </media>
          </clip>
          <clip frameBlend="FALSE" id="masterclip-41">
            <masterclipid>masterclip-41</masterclipid>
            <ismasterclip>TRUE</ismasterclip>
            <duration>150</duration>
            <rate>
              <timebase>30</timebase>
              <ntsc>TRUE</ntsc>
            </rate>
            <name>credL_10.png</name>
            <media>
              <video>
                <track>
                  <clipitem frameBlend="FALSE" id="clipitem-41">
                    <masterclipid>masterclip-41</masterclipid>
                    <name>credL_10.png</name>
                    <file id="file-41">
                      <name>credL_10.png</name>
                      <pathurl>file://localhost/C%3a/netrunner/important%20stuff/credits/creditoverlays/credL_10.png</pathurl>
                      <rate>
                        <timebase>30</timebase>
                        <ntsc>TRUE</ntsc>
                      </rate>
                      <media>
                        <video>
                          <duration>18000</duration>
                          <samplecharacteristics>
                            <rate>
                              <timebase>30</timebase>
                              <ntsc>TRUE</ntsc>
                            </rate>
                            <width>1920</width>
                            <height>1080</height>
                            <anamorphic>FALSE</anamorphic>
                            <pixelaspectratio>square</pixelaspectratio>
                            <fielddominance>none</fielddominance>
                            <colordepth>24</colordepth>
                          </samplecharacteristics>
                        </video>
                      </media>
                    </file>
                  </clipitem>
                </track>
              </video>
            </media>
          </clip>
          <clip frameBlend="FALSE" id="masterclip-42">
            <masterclipid>masterclip-42</masterclipid>
            <ismasterclip>TRUE</ismasterclip>
            <duration>150</duration>
            <rate>
              <timebase>30</timebase>
              <ntsc>TRUE</ntsc>
            </rate>
            <name>credR_10.png</name>
            <media>
              <video>
                <track>
                  <clipitem frameBlend="FALSE" id="clipitem-42">
                    <masterclipid>masterclip-42</masterclipid>
                    <name>credR_10.png</name>
                    <file id="file-42">
                      <name>credR_10.png</name>
                      <pathurl>file://localhost/C%3a/netrunner/important%20stuff/credits/creditoverlays/credR_10.png</pathurl>
                      <rate>
                        <timebase>30</timebase>
                        <ntsc>TRUE</ntsc>
                      </rate>
                      <media>
                        <video>
                          <duration>18000</duration>
                          <samplecharacteristics>
                            <rate>
                              <timebase>30</timebase>
                              <ntsc>TRUE</ntsc>
                            </rate>
                            <width>1920</width>
                            <height>1080</height>
                            <anamorphic>FALSE</anamorphic>
                            <pixelaspectratio>square</pixelaspectratio>
                            <fielddominance>none</fielddominance>
                            <colordepth>24</colordepth>
                          </samplecharacteristics>
                        </video>
                      </media>
                    </file>
                  </clipitem>
                </track>
              </video>
            </media>
          </clip>
          <clip frameBlend="FALSE" id="masterclip-43">
            <masterclipid>masterclip-43</masterclipid>
            <ismasterclip>TRUE</ismasterclip>
            <duration>150</duration>
            <rate>
              <timebase>30</timebase>
              <ntsc>TRUE</ntsc>
            </rate>
            <name>credL_11.png</name>
            <media>
              <video>
                <track>
                  <clipitem frameBlend="FALSE" id="clipitem-43">
                    <masterclipid>masterclip-43</masterclipid>
                    <name>credL_11.png</name>
                    <file id="file-43">
                      <name>credL_11.png</name>
                      <pathurl>file://localhost/C%3a/netrunner/important%20stuff/credits/creditoverlays/credL_11.png</pathurl>
                      <rate>
                        <timebase>30</timebase>
                        <ntsc>TRUE</ntsc>
                      </rate>
                      <media>
                        <video>
                          <duration>18000</duration>
                          <samplecharacteristics>
                            <rate>
                              <timebase>30</timebase>
                              <ntsc>TRUE</ntsc>
                            </rate>
                            <width>1920</width>
                            <height>1080</height>
                            <anamorphic>FALSE</anamorphic>
                            <pixelaspectratio>square</pixelaspectratio>
                            <fielddominance>none</fielddominance>
                            <colordepth>24</colordepth>
                          </samplecharacteristics>
                        </video>
                      </media>
                    </file>
                  </clipitem>
                </track>
              </video>
            </media>
          </clip>
          <clip frameBlend="FALSE" id="masterclip-44">
            <masterclipid>masterclip-44</masterclipid>
            <ismasterclip>TRUE</ismasterclip>
            <duration>150</duration>
            <rate>
              <timebase>30</timebase>
              <ntsc>TRUE</ntsc>
            </rate>
            <name>credR_11.png</name>
            <media>
              <video>
                <track>
                  <clipitem frameBlend="FALSE" id="clipitem-44">
                    <masterclipid>masterclip-44</masterclipid>
                    <name>credR_11.png</name>
                    <file id="file-44">
                      <name>credR_11.png</name>
                      <pathurl>file://localhost/C%3a/netrunner/important%20stuff/credits/creditoverlays/credR_11.png</pathurl>
                      <rate>
                        <timebase>30</timebase>
                        <ntsc>TRUE</ntsc>
                      </rate>
                      <media>
                        <video>
                          <duration>18000</duration>
                          <samplecharacteristics>
                            <rate>
                              <timebase>30</timebase>
                              <ntsc>TRUE</ntsc>
                            </rate>
                            <width>1920</width>
                            <height>1080</height>
                            <anamorphic>FALSE</anamorphic>
                            <pixelaspectratio>square</pixelaspectratio>
                            <fielddominance>none</fielddominance>
                            <colordepth>24</colordepth>
                          </samplecharacteristics>
                        </video>
                      </media>
                    </file>
                  </clipitem>
                </track>
              </video>
            </media>
          </clip>
          <clip frameBlend="FALSE" id="masterclip-45">
            <masterclipid>masterclip-45</masterclipid>
            <ismasterclip>TRUE</ismasterclip>
            <duration>150</duration>
            <rate>
              <timebase>30</timebase>
              <ntsc>TRUE</ntsc>
            </rate>
            <name>credL_12.png</name>
            <media>
              <video>
                <track>
                  <clipitem frameBlend="FALSE" id="clipitem-45">
                    <masterclipid>masterclip-45</masterclipid>
                    <name>credL_12.png</name>
                    <file id="file-45">
                      <name>credL_12.png</name>
                      <pathurl>file://localhost/C%3a/netrunner/important%20stuff/credits/creditoverlays/credL_12.png</pathurl>
                      <rate>
                        <timebase>30</timebase>
                        <ntsc>TRUE</ntsc>
                      </rate>
                      <media>
                        <video>
                          <duration>18000</duration>
                          <samplecharacteristics>
                            <rate>
                              <timebase>30</timebase>
                              <ntsc>TRUE</ntsc>
                            </rate>
                            <width>1920</width>
                            <height>1080</height>
                            <anamorphic>FALSE</anamorphic>
                            <pixelaspectratio>square</pixelaspectratio>
                            <fielddominance>none</fielddominance>
                            <colordepth>24</colordepth>
                          </samplecharacteristics>
                        </video>
                      </media>
                    </file>
                  </clipitem>
                </track>
              </video>
            </media>
          </clip>
          <clip frameBlend="FALSE" id="masterclip-46">
            <masterclipid>masterclip-46</masterclipid>
            <ismasterclip>TRUE</ismasterclip>
            <duration>150</duration>
            <rate>
              <timebase>30</timebase>
              <ntsc>TRUE</ntsc>
            </rate>
            <name>credR_12.png</name>
            <media>
              <video>
                <track>
                  <clipitem frameBlend="FALSE" id="clipitem-46">
                    <masterclipid>masterclip-46</masterclipid>
                    <name>credR_12.png</name>
                    <file id="file-46">
                      <name>credR_12.png</name>
                      <pathurl>file://localhost/C%3a/netrunner/important%20stuff/credits/creditoverlays/credR_12.png</pathurl>
                      <rate>
                        <timebase>30</timebase>
                        <ntsc>TRUE</ntsc>
                      </rate>
                      <media>
                        <video>
                          <duration>18000</duration>
                          <samplecharacteristics>
                            <rate>
                              <timebase>30</timebase>
                              <ntsc>TRUE</ntsc>
                            </rate>
                            <width>1920</width>
                            <height>1080</height>
                            <anamorphic>FALSE</anamorphic>
                            <pixelaspectratio>square</pixelaspectratio>
                            <fielddominance>none</fielddominance>
                            <colordepth>24</colordepth>
                          </samplecharacteristics>
                        </video>
                      </media>
                    </file>
                  </clipitem>
                </track>
              </video>
            </media>
          </clip>
          <clip frameBlend="FALSE" id="masterclip-47">
            <masterclipid>masterclip-47</masterclipid>
            <ismasterclip>TRUE</ismasterclip>
            <duration>150</duration>
            <rate>
              <timebase>30</timebase>
              <ntsc>TRUE</ntsc>
            </rate>
            <name>credL_13.png</name>
            <media>
              <video>
                <track>
                  <clipitem frameBlend="FALSE" id="clipitem-47">
                    <masterclipid>masterclip-47</masterclipid>
                    <name>credL_13.png</name>
                    <file id="file-47">
                      <name>credL_13.png</name>
                      <pathurl>file://localhost/C%3a/netrunner/important%20stuff/credits/creditoverlays/credL_13.png</pathurl>
                      <rate>
                        <timebase>30</timebase>
                        <ntsc>TRUE</ntsc>
                      </rate>
                      <media>
                        <video>
                          <duration>18000</duration>
                          <samplecharacteristics>
                            <rate>
                              <timebase>30</timebase>
                              <ntsc>TRUE</ntsc>
                            </rate>
                            <width>1920</width>
                            <height>1080</height>
                            <anamorphic>FALSE</anamorphic>
                            <pixelaspectratio>square</pixelaspectratio>
                            <fielddominance>none</fielddominance>
                            <colordepth>24</colordepth>
                          </samplecharacteristics>
                        </video>
                      </media>
                    </file>
                  </clipitem>
                </track>
              </video>
            </media>
          </clip>
          <clip frameBlend="FALSE" id="masterclip-48">
            <masterclipid>masterclip-48</masterclipid>
            <ismasterclip>TRUE</ismasterclip>
            <duration>150</duration>
            <rate>
              <timebase>30</timebase>
              <ntsc>TRUE</ntsc>
            </rate>
            <name>credR_13.png</name>
            <media>
              <video>
                <track>
                  <clipitem frameBlend="FALSE" id="clipitem-48">
                    <masterclipid>masterclip-48</masterclipid>
                    <name>credR_13.png</name>
                    <file id="file-48">
                      <name>credR_13.png</name>
                      <pathurl>file://localhost/C%3a/netrunner/important%20stuff/credits/creditoverlays/credR_13.png</pathurl>
                      <rate>
                        <timebase>30</timebase>
                        <ntsc>TRUE</ntsc>
                      </rate>
                      <media>
                        <video>
                          <duration>18000</duration>
                          <samplecharacteristics>
                            <rate>
                              <timebase>30</timebase>
                              <ntsc>TRUE</ntsc>
                            </rate>
                            <width>1920</width>
                            <height>1080</height>
                            <anamorphic>FALSE</anamorphic>
                            <pixelaspectratio>square</pixelaspectratio>
                            <fielddominance>none</fielddominance>
                            <colordepth>24</colordepth>
                          </samplecharacteristics>
                        </video>
                      </media>
                    </file>
                  </clipitem>
                </track>
              </video>
            </media>
          </clip>
          <clip frameBlend="FALSE" id="masterclip-49">
            <masterclipid>masterclip-49</masterclipid>
            <ismasterclip>TRUE</ismasterclip>
            <duration>150</duration>
            <rate>
              <timebase>30</timebase>
              <ntsc>TRUE</ntsc>
            </rate>
            <name>credL_14.png</name>
            <media>
              <video>
                <track>
                  <clipitem frameBlend="FALSE" id="clipitem-49">
                    <masterclipid>masterclip-49</masterclipid>
                    <name>credL_14.png</name>
                    <file id="file-49">
                      <name>credL_14.png</name>
                      <pathurl>file://localhost/C%3a/netrunner/important%20stuff/credits/creditoverlays/credL_14.png</pathurl>
                      <rate>
                        <timebase>30</timebase>
                        <ntsc>TRUE</ntsc>
                      </rate>
                      <media>
                        <video>
                          <duration>18000</duration>
                          <samplecharacteristics>
                            <rate>
                              <timebase>30</timebase>
                              <ntsc>TRUE</ntsc>
                            </rate>
                            <width>1920</width>
                            <height>1080</height>
                            <anamorphic>FALSE</anamorphic>
                            <pixelaspectratio>square</pixelaspectratio>
                            <fielddominance>none</fielddominance>
                            <colordepth>24</colordepth>
                          </samplecharacteristics>
                        </video>
                      </media>
                    </file>
                  </clipitem>
                </track>
              </video>
            </media>
          </clip>
          <clip frameBlend="FALSE" id="masterclip-50">
            <masterclipid>masterclip-50</masterclipid>
            <ismasterclip>TRUE</ismasterclip>
            <duration>150</duration>
            <rate>
              <timebase>30</timebase>
              <ntsc>TRUE</ntsc>
            </rate>
            <name>credR_14.png</name>
            <media>
              <video>
                <track>
                  <clipitem frameBlend="FALSE" id="clipitem-50">
                    <masterclipid>masterclip-50</masterclipid>
                    <name>credR_14.png</name>
                    <file id="file-50">
                      <name>credR_14.png</name>
                      <pathurl>file://localhost/C%3a/netrunner/important%20stuff/credits/creditoverlays/credR_14.png</pathurl>
                      <rate>
                        <timebase>30</timebase>
                        <ntsc>TRUE</ntsc>
                      </rate>
                      <media>
                        <video>
                          <duration>18000</duration>
                          <samplecharacteristics>
                            <rate>
                              <timebase>30</timebase>
                              <ntsc>TRUE</ntsc>
                            </rate>
                            <width>1920</width>
                            <height>1080</height>
                            <anamorphic>FALSE</anamorphic>
                            <pixelaspectratio>square</pixelaspectratio>
                            <fielddominance>none</fielddominance>
                            <colordepth>24</colordepth>
                          </samplecharacteristics>
                        </video>
                      </media>
                    </file>
                  </clipitem>
                </track>
              </video>
            </media>
          </clip>
          <clip frameBlend="FALSE" id="masterclip-51">
            <masterclipid>masterclip-51</masterclipid>
            <ismasterclip>TRUE</ismasterclip>
            <duration>150</duration>
            <rate>
              <timebase>30</timebase>
              <ntsc>TRUE</ntsc>
            </rate>
            <name>credL_15.png</name>
            <media>
              <video>
                <track>
                  <clipitem frameBlend="FALSE" id="clipitem-51">
                    <masterclipid>masterclip-51</masterclipid>
                    <name>credL_15.png</name>
                    <file id="file-51">
                      <name>credL_15.png</name>
                      <pathurl>file://localhost/C%3a/netrunner/important%20stuff/credits/creditoverlays/credL_15.png</pathurl>
                      <rate>
                        <timebase>30</timebase>
                        <ntsc>TRUE</ntsc>
                      </rate>
                      <media>
                        <video>
                          <duration>18000</duration>
                          <samplecharacteristics>
                            <rate>
                              <timebase>30</timebase>
                              <ntsc>TRUE</ntsc>
                            </rate>
                            <width>1920</width>
                            <height>1080</height>
                            <anamorphic>FALSE</anamorphic>
                            <pixelaspectratio>square</pixelaspectratio>
                            <fielddominance>none</fielddominance>
                            <colordepth>24</colordepth>
                          </samplecharacteristics>
                        </video>
                      </media>
                    </file>
                  </clipitem>
                </track>
              </video>
            </media>
          </clip>
          <clip frameBlend="FALSE" id="masterclip-52">
            <masterclipid>masterclip-52</masterclipid>
            <ismasterclip>TRUE</ismasterclip>
            <duration>150</duration>
            <rate>
              <timebase>30</timebase>
              <ntsc>TRUE</ntsc>
            </rate>
            <name>credR_15.png</name>
            <media>
              <video>
                <track>
                  <clipitem frameBlend="FALSE" id="clipitem-52">
                    <masterclipid>masterclip-52</masterclipid>
                    <name>credR_15.png</name>
                    <file id="file-52">
                      <name>credR_15.png</name>
                      <pathurl>file://localhost/C%3a/netrunner/important%20stuff/credits/creditoverlays/credR_15.png</pathurl>
                      <rate>
                        <timebase>30</timebase>
                        <ntsc>TRUE</ntsc>
                      </rate>
                      <media>
                        <video>
                          <duration>18000</duration>
                          <samplecharacteristics>
                            <rate>
                              <timebase>30</timebase>
                              <ntsc>TRUE</ntsc>
                            </rate>
                            <width>1920</width>
                            <height>1080</height>
                            <anamorphic>FALSE</anamorphic>
                            <pixelaspectratio>square</pixelaspectratio>
                            <fielddominance>none</fielddominance>
                            <colordepth>24</colordepth>
                          </samplecharacteristics>
                        </video>
                      </media>
                    </file>
                  </clipitem>
                </track>
              </video>
            </media>
          </clip>
          <clip frameBlend="FALSE" id="masterclip-53">
            <masterclipid>masterclip-53</masterclipid>
            <ismasterclip>TRUE</ismasterclip>
            <duration>150</duration>
            <rate>
              <timebase>30</timebase>
              <ntsc>TRUE</ntsc>
            </rate>
            <name>credL_16.png</name>
            <media>
              <video>
                <track>
                  <clipitem frameBlend="FALSE" id="clipitem-53">
                    <masterclipid>masterclip-53</masterclipid>
                    <name>credL_16.png</name>
                    <file id="file-53">
                      <name>credL_16.png</name>
                      <pathurl>file://localhost/C%3a/netrunner/important%20stuff/credits/creditoverlays/credL_16.png</pathurl>
                      <rate>
                        <timebase>30</timebase>
                        <ntsc>TRUE</ntsc>
                      </rate>
                      <media>
                        <video>
                          <duration>18000</duration>
                          <samplecharacteristics>
                            <rate>
                              <timebase>30</timebase>
                              <ntsc>TRUE</ntsc>
                            </rate>
                            <width>1920</width>
                            <height>1080</height>
                            <anamorphic>FALSE</anamorphic>
                            <pixelaspectratio>square</pixelaspectratio>
                            <fielddominance>none</fielddominance>
                            <colordepth>24</colordepth>
                          </samplecharacteristics>
                        </video>
                      </media>
                    </file>
                  </clipitem>
                </track>
              </video>
            </media>
          </clip>
          <clip frameBlend="FALSE" id="masterclip-54">
            <masterclipid>masterclip-54</masterclipid>
            <ismasterclip>TRUE</ismasterclip>
            <duration>150</duration>
            <rate>
              <timebase>30</timebase>
              <ntsc>TRUE</ntsc>
            </rate>
            <name>credR_16.png</name>
            <media>
              <video>
                <track>
                  <clipitem frameBlend="FALSE" id="clipitem-54">
                    <masterclipid>masterclip-54</masterclipid>
                    <name>credR_16.png</name>
                    <file id="file-54">
                      <name>credR_16.png</name>
                      <pathurl>file://localhost/C%3a/netrunner/important%20stuff/credits/creditoverlays/credR_16.png</pathurl>
                      <rate>
                        <timebase>30</timebase>
                        <ntsc>TRUE</ntsc>
                      </rate>
                      <media>
                        <video>
                          <duration>18000</duration>
                          <samplecharacteristics>
                            <rate>
                              <timebase>30</timebase>
                              <ntsc>TRUE</ntsc>
                            </rate>
                            <width>1920</width>
                            <height>1080</height>
                            <anamorphic>FALSE</anamorphic>
                            <pixelaspectratio>square</pixelaspectratio>
                            <fielddominance>none</fielddominance>
                            <colordepth>24</colordepth>
                          </samplecharacteristics>
                        </video>
                      </media>
                    </file>
                  </clipitem>
                </track>
              </video>
            </media>
          </clip>
          <clip frameBlend="FALSE" id="masterclip-55">
            <masterclipid>masterclip-55</masterclipid>
            <ismasterclip>TRUE</ismasterclip>
            <duration>150</duration>
            <rate>
              <timebase>30</timebase>
              <ntsc>TRUE</ntsc>
            </rate>
            <name>credL_17.png</name>
            <media>
              <video>
                <track>
                  <clipitem frameBlend="FALSE" id="clipitem-55">
                    <masterclipid>masterclip-55</masterclipid>
                    <name>credL_17.png</name>
                    <file id="file-55">
                      <name>credL_17.png</name>
                      <pathurl>file://localhost/C%3a/netrunner/important%20stuff/credits/creditoverlays/credL_17.png</pathurl>
                      <rate>
                        <timebase>30</timebase>
                        <ntsc>TRUE</ntsc>
                      </rate>
                      <media>
                        <video>
                          <duration>18000</duration>
                          <samplecharacteristics>
                            <rate>
                              <timebase>30</timebase>
                              <ntsc>TRUE</ntsc>
                            </rate>
                            <width>1920</width>
                            <height>1080</height>
                            <anamorphic>FALSE</anamorphic>
                            <pixelaspectratio>square</pixelaspectratio>
                            <fielddominance>none</fielddominance>
                            <colordepth>24</colordepth>
                          </samplecharacteristics>
                        </video>
                      </media>
                    </file>
                  </clipitem>
                </track>
              </video>
            </media>
          </clip>
          <clip frameBlend="FALSE" id="masterclip-56">
            <masterclipid>masterclip-56</masterclipid>
            <ismasterclip>TRUE</ismasterclip>
            <duration>150</duration>
            <rate>
              <timebase>30</timebase>
              <ntsc>TRUE</ntsc>
            </rate>
            <name>credR_17.png</name>
            <media>
              <video>
                <track>
                  <clipitem frameBlend="FALSE" id="clipitem-56">
                    <masterclipid>masterclip-56</masterclipid>
                    <name>credR_17.png</name>
                    <file id="file-56">
                      <name>credR_17.png</name>
                      <pathurl>file://localhost/C%3a/netrunner/important%20stuff/credits/creditoverlays/credR_17.png</pathurl>
                      <rate>
                        <timebase>30</timebase>
                        <ntsc>TRUE</ntsc>
                      </rate>
                      <media>
                        <video>
                          <duration>18000</duration>
                          <samplecharacteristics>
                            <rate>
                              <timebase>30</timebase>
                              <ntsc>TRUE</ntsc>
                            </rate>
                            <width>1920</width>
                            <height>1080</height>
                            <anamorphic>FALSE</anamorphic>
                            <pixelaspectratio>square</pixelaspectratio>
                            <fielddominance>none</fielddominance>
                            <colordepth>24</colordepth>
                          </samplecharacteristics>
                        </video>
                      </media>
                    </file>
                  </clipitem>
                </track>
              </video>
            </media>
          </clip>
          <clip frameBlend="FALSE" id="masterclip-57">
            <masterclipid>masterclip-57</masterclipid>
            <ismasterclip>TRUE</ismasterclip>
            <duration>150</duration>
            <rate>
              <timebase>30</timebase>
              <ntsc>TRUE</ntsc>
            </rate>
            <name>credL_18.png</name>
            <media>
              <video>
                <track>
                  <clipitem frameBlend="FALSE" id="clipitem-57">
                    <masterclipid>masterclip-57</masterclipid>
                    <name>credL_18.png</name>
                    <file id="file-57">
                      <name>credL_18.png</name>
                      <pathurl>file://localhost/C%3a/netrunner/important%20stuff/credits/creditoverlays/credL_18.png</pathurl>
                      <rate>
                        <timebase>30</timebase>
                        <ntsc>TRUE</ntsc>
                      </rate>
                      <media>
                        <video>
                          <duration>18000</duration>
                          <samplecharacteristics>
                            <rate>
                              <timebase>30</timebase>
                              <ntsc>TRUE</ntsc>
                            </rate>
                            <width>1920</width>
                            <height>1080</height>
                            <anamorphic>FALSE</anamorphic>
                            <pixelaspectratio>square</pixelaspectratio>
                            <fielddominance>none</fielddominance>
                            <colordepth>24</colordepth>
                          </samplecharacteristics>
                        </video>
                      </media>
                    </file>
                  </clipitem>
                </track>
              </video>
            </media>
          </clip>
          <clip frameBlend="FALSE" id="masterclip-58">
            <masterclipid>masterclip-58</masterclipid>
            <ismasterclip>TRUE</ismasterclip>
            <duration>150</duration>
            <rate>
              <timebase>30</timebase>
              <ntsc>TRUE</ntsc>
            </rate>
            <name>credR_18.png</name>
            <media>
              <video>
                <track>
                  <clipitem frameBlend="FALSE" id="clipitem-58">
                    <masterclipid>masterclip-58</masterclipid>
                    <name>credR_18.png</name>
                    <file id="file-58">
                      <name>credR_18.png</name>
                      <pathurl>file://localhost/C%3a/netrunner/important%20stuff/credits/creditoverlays/credR_18.png</pathurl>
                      <rate>
                        <timebase>30</timebase>
                        <ntsc>TRUE</ntsc>
                      </rate>
                      <media>
                        <video>
                          <duration>18000</duration>
                          <samplecharacteristics>
                            <rate>
                              <timebase>30</timebase>
                              <ntsc>TRUE</ntsc>
                            </rate>
                            <width>1920</width>
                            <height>1080</height>
                            <anamorphic>FALSE</anamorphic>
                            <pixelaspectratio>square</pixelaspectratio>
                            <fielddominance>none</fielddominance>
                            <colordepth>24</colordepth>
                          </samplecharacteristics>
                        </video>
                      </media>
                    </file>
                  </clipitem>
                </track>
              </video>
            </media>
          </clip>
          <clip frameBlend="FALSE" id="masterclip-59">
            <masterclipid>masterclip-59</masterclipid>
            <ismasterclip>TRUE</ismasterclip>
            <duration>150</duration>
            <rate>
              <timebase>30</timebase>
              <ntsc>TRUE</ntsc>
            </rate>
            <name>credL_19.png</name>
            <media>
              <video>
                <track>
                  <clipitem frameBlend="FALSE" id="clipitem-59">
                    <masterclipid>masterclip-59</masterclipid>
                    <name>credL_19.png</name>
                    <file id="file-59">
                      <name>credL_19.png</name>
                      <pathurl>file://localhost/C%3a/netrunner/important%20stuff/credits/creditoverlays/credL_19.png</pathurl>
                      <rate>
                        <timebase>30</timebase>
                        <ntsc>TRUE</ntsc>
                      </rate>
                      <media>
                        <video>
                          <duration>18000</duration>
                          <samplecharacteristics>
                            <rate>
                              <timebase>30</timebase>
                              <ntsc>TRUE</ntsc>
                            </rate>
                            <width>1920</width>
                            <height>1080</height>
                            <anamorphic>FALSE</anamorphic>
                            <pixelaspectratio>square</pixelaspectratio>
                            <fielddominance>none</fielddominance>
                            <colordepth>24</colordepth>
                          </samplecharacteristics>
                        </video>
                      </media>
                    </file>
                  </clipitem>
                </track>
              </video>
            </media>
          </clip>
          <clip frameBlend="FALSE" id="masterclip-60">
            <masterclipid>masterclip-60</masterclipid>
            <ismasterclip>TRUE</ismasterclip>
            <duration>150</duration>
            <rate>
              <timebase>30</timebase>
              <ntsc>TRUE</ntsc>
            </rate>
            <name>credR_19.png</name>
            <media>
              <video>
                <track>
                  <clipitem frameBlend="FALSE" id="clipitem-60">
                    <masterclipid>masterclip-60</masterclipid>
                    <name>credR_19.png</name>
                    <file id="file-60">
                      <name>credR_19.png</name>
                      <pathurl>file://localhost/C%3a/netrunner/important%20stuff/credits/creditoverlays/credR_19.png</pathurl>
                      <rate>
                        <timebase>30</timebase>
                        <ntsc>TRUE</ntsc>
                      </rate>
                      <media>
                        <video>
                          <duration>18000</duration>
                          <samplecharacteristics>
                            <rate>
                              <timebase>30</timebase>
                              <ntsc>TRUE</ntsc>
                            </rate>
                            <width>1920</width>
                            <height>1080</height>
                            <anamorphic>FALSE</anamorphic>
                            <pixelaspectratio>square</pixelaspectratio>
                            <fielddominance>none</fielddominance>
                            <colordepth>24</colordepth>
                          </samplecharacteristics>
                        </video>
                      </media>
                    </file>
                  </clipitem>
                </track>
              </video>
            </media>
          </clip>
          <clip frameBlend="FALSE" id="masterclip-61">
            <masterclipid>masterclip-61</masterclipid>
            <ismasterclip>TRUE</ismasterclip>
            <duration>150</duration>
            <rate>
              <timebase>30</timebase>
              <ntsc>TRUE</ntsc>
            </rate>
            <name>credL_20.png</name>
            <media>
              <video>
                <track>
                  <clipitem frameBlend="FALSE" id="clipitem-61">
                    <masterclipid>masterclip-61</masterclipid>
                    <name>credL_20.png</name>
                    <file id="file-61">
                      <name>credL_20.png</name>
                      <pathurl>file://localhost/C%3a/netrunner/important%20stuff/credits/creditoverlays/credL_20.png</pathurl>
                      <rate>
                        <timebase>30</timebase>
                        <ntsc>TRUE</ntsc>
                      </rate>
                      <media>
                        <video>
                          <duration>18000</duration>
                          <samplecharacteristics>
                            <rate>
                              <timebase>30</timebase>
                              <ntsc>TRUE</ntsc>
                            </rate>
                            <width>1920</width>
                            <height>1080</height>
                            <anamorphic>FALSE</anamorphic>
                            <pixelaspectratio>square</pixelaspectratio>
                            <fielddominance>none</fielddominance>
                            <colordepth>24</colordepth>
                          </samplecharacteristics>
                        </video>
                      </media>
                    </file>
                  </clipitem>
                </track>
              </video>
            </media>
          </clip>
          <clip frameBlend="FALSE" id="masterclip-62">
            <masterclipid>masterclip-62</masterclipid>
            <ismasterclip>TRUE</ismasterclip>
            <duration>150</duration>
            <rate>
              <timebase>30</timebase>
              <ntsc>TRUE</ntsc>
            </rate>
            <name>credR_20.png</name>
            <media>
              <video>
                <track>
                  <clipitem frameBlend="FALSE" id="clipitem-62">
                    <masterclipid>masterclip-62</masterclipid>
                    <name>credR_20.png</name>
                    <file id="file-62">
                      <name>credR_20.png</name>
                      <pathurl>file://localhost/C%3a/netrunner/important%20stuff/credits/creditoverlays/credR_20.png</pathurl>
                      <rate>
                        <timebase>30</timebase>
                        <ntsc>TRUE</ntsc>
                      </rate>
                      <media>
                        <video>
                          <duration>18000</duration>
                          <samplecharacteristics>
                            <rate>
                              <timebase>30</timebase>
                              <ntsc>TRUE</ntsc>
                            </rate>
                            <width>1920</width>
                            <height>1080</height>
                            <anamorphic>FALSE</anamorphic>
                            <pixelaspectratio>square</pixelaspectratio>
                            <fielddominance>none</fielddominance>
                            <colordepth>24</colordepth>
                          </samplecharacteristics>
                        </video>
                      </media>
                    </file>
                  </clipitem>
                </track>
              </video>
            </media>
          </clip>
          <clip frameBlend="FALSE" id="masterclip-63">
            <masterclipid>masterclip-63</masterclipid>
            <ismasterclip>TRUE</ismasterclip>
            <duration>150</duration>
            <rate>
              <timebase>30</timebase>
              <ntsc>TRUE</ntsc>
            </rate>
            <name>credL_21.png</name>
            <media>
              <video>
                <track>
                  <clipitem frameBlend="FALSE" id="clipitem-63">
                    <masterclipid>masterclip-63</masterclipid>
                    <name>credL_21.png</name>
                    <file id="file-63">
                      <name>credL_21.png</name>
                      <pathurl>file://localhost/C%3a/netrunner/important%20stuff/credits/creditoverlays/credL_21.png</pathurl>
                      <rate>
                        <timebase>30</timebase>
                        <ntsc>TRUE</ntsc>
                      </rate>
                      <media>
                        <video>
                          <duration>18000</duration>
                          <samplecharacteristics>
                            <rate>
                              <timebase>30</timebase>
                              <ntsc>TRUE</ntsc>
                            </rate>
                            <width>1920</width>
                            <height>1080</height>
                            <anamorphic>FALSE</anamorphic>
                            <pixelaspectratio>square</pixelaspectratio>
                            <fielddominance>none</fielddominance>
                            <colordepth>24</colordepth>
                          </samplecharacteristics>
                        </video>
                      </media>
                    </file>
                  </clipitem>
                </track>
              </video>
            </media>
          </clip>
          <clip frameBlend="FALSE" id="masterclip-64">
            <masterclipid>masterclip-64</masterclipid>
            <ismasterclip>TRUE</ismasterclip>
            <duration>150</duration>
            <rate>
              <timebase>30</timebase>
              <ntsc>TRUE</ntsc>
            </rate>
            <name>credR_21.png</name>
            <media>
              <video>
                <track>
                  <clipitem frameBlend="FALSE" id="clipitem-64">
                    <masterclipid>masterclip-64</masterclipid>
                    <name>credR_21.png</name>
                    <file id="file-64">
                      <name>credR_21.png</name>
                      <pathurl>file://localhost/C%3a/netrunner/important%20stuff/credits/creditoverlays/credR_21.png</pathurl>
                      <rate>
                        <timebase>30</timebase>
                        <ntsc>TRUE</ntsc>
                      </rate>
                      <media>
                        <video>
                          <duration>18000</duration>
                          <samplecharacteristics>
                            <rate>
                              <timebase>30</timebase>
                              <ntsc>TRUE</ntsc>
                            </rate>
                            <width>1920</width>
                            <height>1080</height>
                            <anamorphic>FALSE</anamorphic>
                            <pixelaspectratio>square</pixelaspectratio>
                            <fielddominance>none</fielddominance>
                            <colordepth>24</colordepth>
                          </samplecharacteristics>
                        </video>
                      </media>
                    </file>
                  </clipitem>
                </track>
              </video>
            </media>
          </clip>
          <clip frameBlend="FALSE" id="masterclip-65">
            <masterclipid>masterclip-65</masterclipid>
            <ismasterclip>TRUE</ismasterclip>
            <duration>150</duration>
            <rate>
              <timebase>30</timebase>
              <ntsc>TRUE</ntsc>
            </rate>
            <name>credL_22.png</name>
            <media>
              <video>
                <track>
                  <clipitem frameBlend="FALSE" id="clipitem-65">
                    <masterclipid>masterclip-65</masterclipid>
                    <name>credL_22.png</name>
                    <file id="file-65">
                      <name>credL_22.png</name>
                      <pathurl>file://localhost/C%3a/netrunner/important%20stuff/credits/creditoverlays/credL_22.png</pathurl>
                      <rate>
                        <timebase>30</timebase>
                        <ntsc>TRUE</ntsc>
                      </rate>
                      <media>
                        <video>
                          <duration>18000</duration>
                          <samplecharacteristics>
                            <rate>
                              <timebase>30</timebase>
                              <ntsc>TRUE</ntsc>
                            </rate>
                            <width>1920</width>
                            <height>1080</height>
                            <anamorphic>FALSE</anamorphic>
                            <pixelaspectratio>square</pixelaspectratio>
                            <fielddominance>none</fielddominance>
                            <colordepth>24</colordepth>
                          </samplecharacteristics>
                        </video>
                      </media>
                    </file>
                  </clipitem>
                </track>
              </video>
            </media>
          </clip>
          <clip frameBlend="FALSE" id="masterclip-66">
            <masterclipid>masterclip-66</masterclipid>
            <ismasterclip>TRUE</ismasterclip>
            <duration>150</duration>
            <rate>
              <timebase>30</timebase>
              <ntsc>TRUE</ntsc>
            </rate>
            <name>credR_22.png</name>
            <media>
              <video>
                <track>
                  <clipitem frameBlend="FALSE" id="clipitem-66">
                    <masterclipid>masterclip-66</masterclipid>
                    <name>credR_22.png</name>
                    <file id="file-66">
                      <name>credR_22.png</name>
                      <pathurl>file://localhost/C%3a/netrunner/important%20stuff/credits/creditoverlays/credR_22.png</pathurl>
                      <rate>
                        <timebase>30</timebase>
                        <ntsc>TRUE</ntsc>
                      </rate>
                      <media>
                        <video>
                          <duration>18000</duration>
                          <samplecharacteristics>
                            <rate>
                              <timebase>30</timebase>
                              <ntsc>TRUE</ntsc>
                            </rate>
                            <width>1920</width>
                            <height>1080</height>
                            <anamorphic>FALSE</anamorphic>
                            <pixelaspectratio>square</pixelaspectratio>
                            <fielddominance>none</fielddominance>
                            <colordepth>24</colordepth>
                          </samplecharacteristics>
                        </video>
                      </media>
                    </file>
                  </clipitem>
                </track>
              </video>
            </media>
          </clip>
          <clip frameBlend="FALSE" id="masterclip-67">
            <masterclipid>masterclip-67</masterclipid>
            <ismasterclip>TRUE</ismasterclip>
            <duration>150</duration>
            <rate>
              <timebase>30</timebase>
              <ntsc>TRUE</ntsc>
            </rate>
            <name>credL_23.png</name>
            <media>
              <video>
                <track>
                  <clipitem frameBlend="FALSE" id="clipitem-67">
                    <masterclipid>masterclip-67</masterclipid>
                    <name>credL_23.png</name>
                    <file id="file-67">
                      <name>credL_23.png</name>
                      <pathurl>file://localhost/C%3a/netrunner/important%20stuff/credits/creditoverlays/credL_23.png</pathurl>
                      <rate>
                        <timebase>30</timebase>
                        <ntsc>TRUE</ntsc>
                      </rate>
                      <media>
                        <video>
                          <duration>18000</duration>
                          <samplecharacteristics>
                            <rate>
                              <timebase>30</timebase>
                              <ntsc>TRUE</ntsc>
                            </rate>
                            <width>1920</width>
                            <height>1080</height>
                            <anamorphic>FALSE</anamorphic>
                            <pixelaspectratio>square</pixelaspectratio>
                            <fielddominance>none</fielddominance>
                            <colordepth>24</colordepth>
                          </samplecharacteristics>
                        </video>
                      </media>
                    </file>
                  </clipitem>
                </track>
              </video>
            </media>
          </clip>
          <clip frameBlend="FALSE" id="masterclip-68">
            <masterclipid>masterclip-68</masterclipid>
            <ismasterclip>TRUE</ismasterclip>
            <duration>150</duration>
            <rate>
              <timebase>30</timebase>
              <ntsc>TRUE</ntsc>
            </rate>
            <name>credR_23.png</name>
            <media>
              <video>
                <track>
                  <clipitem frameBlend="FALSE" id="clipitem-68">
                    <masterclipid>masterclip-68</masterclipid>
                    <name>credR_23.png</name>
                    <file id="file-68">
                      <name>credR_23.png</name>
                      <pathurl>file://localhost/C%3a/netrunner/important%20stuff/credits/creditoverlays/credR_23.png</pathurl>
                      <rate>
                        <timebase>30</timebase>
                        <ntsc>TRUE</ntsc>
                      </rate>
                      <media>
                        <video>
                          <duration>18000</duration>
                          <samplecharacteristics>
                            <rate>
                              <timebase>30</timebase>
                              <ntsc>TRUE</ntsc>
                            </rate>
                            <width>1920</width>
                            <height>1080</height>
                            <anamorphic>FALSE</anamorphic>
                            <pixelaspectratio>square</pixelaspectratio>
                            <fielddominance>none</fielddominance>
                            <colordepth>24</colordepth>
                          </samplecharacteristics>
                        </video>
                      </media>
                    </file>
                  </clipitem>
                </track>
              </video>
            </media>
          </clip>
          <clip frameBlend="FALSE" id="masterclip-69">
            <masterclipid>masterclip-69</masterclipid>
            <ismasterclip>TRUE</ismasterclip>
            <duration>150</duration>
            <rate>
              <timebase>30</timebase>
              <ntsc>TRUE</ntsc>
            </rate>
            <name>credL_24.png</name>
            <media>
              <video>
                <track>
                  <clipitem frameBlend="FALSE" id="clipitem-69">
                    <masterclipid>masterclip-69</masterclipid>
                    <name>credL_24.png</name>
                    <file id="file-69">
                      <name>credL_24.png</name>
                      <pathurl>file://localhost/C%3a/netrunner/important%20stuff/credits/creditoverlays/credL_24.png</pathurl>
                      <rate>
                        <timebase>30</timebase>
                        <ntsc>TRUE</ntsc>
                      </rate>
                      <media>
                        <video>
                          <duration>18000</duration>
                          <samplecharacteristics>
                            <rate>
                              <timebase>30</timebase>
                              <ntsc>TRUE</ntsc>
                            </rate>
                            <width>1920</width>
                            <height>1080</height>
                            <anamorphic>FALSE</anamorphic>
                            <pixelaspectratio>square</pixelaspectratio>
                            <fielddominance>none</fielddominance>
                            <colordepth>24</colordepth>
                          </samplecharacteristics>
                        </video>
                      </media>
                    </file>
                  </clipitem>
                </track>
              </video>
            </media>
          </clip>
          <clip frameBlend="FALSE" id="masterclip-70">
            <masterclipid>masterclip-70</masterclipid>
            <ismasterclip>TRUE</ismasterclip>
            <duration>150</duration>
            <rate>
              <timebase>30</timebase>
              <ntsc>TRUE</ntsc>
            </rate>
            <name>credR_24.png</name>
            <media>
              <video>
                <track>
                  <clipitem frameBlend="FALSE" id="clipitem-70">
                    <masterclipid>masterclip-70</masterclipid>
                    <name>credR_24.png</name>
                    <file id="file-70">
                      <name>credR_24.png</name>
                      <pathurl>file://localhost/C%3a/netrunner/important%20stuff/credits/creditoverlays/credR_24.png</pathurl>
                      <rate>
                        <timebase>30</timebase>
                        <ntsc>TRUE</ntsc>
                      </rate>
                      <media>
                        <video>
                          <duration>18000</duration>
                          <samplecharacteristics>
                            <rate>
                              <timebase>30</timebase>
                              <ntsc>TRUE</ntsc>
                            </rate>
                            <width>1920</width>
                            <height>1080</height>
                            <anamorphic>FALSE</anamorphic>
                            <pixelaspectratio>square</pixelaspectratio>
                            <fielddominance>none</fielddominance>
                            <colordepth>24</colordepth>
                          </samplecharacteristics>
                        </video>
                      </media>
                    </file>
                  </clipitem>
                </track>
              </video>
            </media>
          </clip>
          <clip frameBlend="FALSE" id="masterclip-71">
            <masterclipid>masterclip-71</masterclipid>
            <ismasterclip>TRUE</ismasterclip>
            <duration>150</duration>
            <rate>
              <timebase>30</timebase>
              <ntsc>TRUE</ntsc>
            </rate>
            <name>credL_25.png</name>
            <media>
              <video>
                <track>
                  <clipitem frameBlend="FALSE" id="clipitem-71">
                    <masterclipid>masterclip-71</masterclipid>
                    <name>credL_25.png</name>
                    <file id="file-71">
                      <name>credL_25.png</name>
                      <pathurl>file://localhost/C%3a/netrunner/important%20stuff/credits/creditoverlays/credL_25.png</pathurl>
                      <rate>
                        <timebase>30</timebase>
                        <ntsc>TRUE</ntsc>
                      </rate>
                      <media>
                        <video>
                          <duration>18000</duration>
                          <samplecharacteristics>
                            <rate>
                              <timebase>30</timebase>
                              <ntsc>TRUE</ntsc>
                            </rate>
                            <width>1920</width>
                            <height>1080</height>
                            <anamorphic>FALSE</anamorphic>
                            <pixelaspectratio>square</pixelaspectratio>
                            <fielddominance>none</fielddominance>
                            <colordepth>24</colordepth>
                          </samplecharacteristics>
                        </video>
                      </media>
                    </file>
                  </clipitem>
                </track>
              </video>
            </media>
          </clip>
          <clip frameBlend="FALSE" id="masterclip-72">
            <masterclipid>masterclip-72</masterclipid>
            <ismasterclip>TRUE</ismasterclip>
            <duration>150</duration>
            <rate>
              <timebase>30</timebase>
              <ntsc>TRUE</ntsc>
            </rate>
            <name>credR_25.png</name>
            <media>
              <video>
                <track>
                  <clipitem frameBlend="FALSE" id="clipitem-72">
                    <masterclipid>masterclip-72</masterclipid>
                    <name>credR_25.png</name>
                    <file id="file-72">
                      <name>credR_25.png</name>
                      <pathurl>file://localhost/C%3a/netrunner/important%20stuff/credits/creditoverlays/credR_25.png</pathurl>
                      <rate>
                        <timebase>30</timebase>
                        <ntsc>TRUE</ntsc>
                      </rate>
                      <media>
                        <video>
                          <duration>18000</duration>
                          <samplecharacteristics>
                            <rate>
                              <timebase>30</timebase>
                              <ntsc>TRUE</ntsc>
                            </rate>
                            <width>1920</width>
                            <height>1080</height>
                            <anamorphic>FALSE</anamorphic>
                            <pixelaspectratio>square</pixelaspectratio>
                            <fielddominance>none</fielddominance>
                            <colordepth>24</colordepth>
                          </samplecharacteristics>
                        </video>
                      </media>
                    </file>
                  </clipitem>
                </track>
              </video>
            </media>
          </clip>
          <clip frameBlend="FALSE" id="masterclip-73">
            <masterclipid>masterclip-73</masterclipid>
            <ismasterclip>TRUE</ismasterclip>
            <duration>150</duration>
            <rate>
              <timebase>30</timebase>
              <ntsc>TRUE</ntsc>
            </rate>
            <name>credL_26.png</name>
            <media>
              <video>
                <track>
                  <clipitem frameBlend="FALSE" id="clipitem-73">
                    <masterclipid>masterclip-73</masterclipid>
                    <name>credL_26.png</name>
                    <file id="file-73">
                      <name>credL_26.png</name>
                      <pathurl>file://localhost/C%3a/netrunner/important%20stuff/credits/creditoverlays/credL_26.png</pathurl>
                      <rate>
                        <timebase>30</timebase>
                        <ntsc>TRUE</ntsc>
                      </rate>
                      <media>
                        <video>
                          <duration>18000</duration>
                          <samplecharacteristics>
                            <rate>
                              <timebase>30</timebase>
                              <ntsc>TRUE</ntsc>
                            </rate>
                            <width>1920</width>
                            <height>1080</height>
                            <anamorphic>FALSE</anamorphic>
                            <pixelaspectratio>square</pixelaspectratio>
                            <fielddominance>none</fielddominance>
                            <colordepth>24</colordepth>
                          </samplecharacteristics>
                        </video>
                      </media>
                    </file>
                  </clipitem>
                </track>
              </video>
            </media>
          </clip>
          <clip frameBlend="FALSE" id="masterclip-74">
            <masterclipid>masterclip-74</masterclipid>
            <ismasterclip>TRUE</ismasterclip>
            <duration>150</duration>
            <rate>
              <timebase>30</timebase>
              <ntsc>TRUE</ntsc>
            </rate>
            <name>credR_26.png</name>
            <media>
              <video>
                <track>
                  <clipitem frameBlend="FALSE" id="clipitem-74">
                    <masterclipid>masterclip-74</masterclipid>
                    <name>credR_26.png</name>
                    <file id="file-74">
                      <name>credR_26.png</name>
                      <pathurl>file://localhost/C%3a/netrunner/important%20stuff/credits/creditoverlays/credR_26.png</pathurl>
                      <rate>
                        <timebase>30</timebase>
                        <ntsc>TRUE</ntsc>
                      </rate>
                      <media>
                        <video>
                          <duration>18000</duration>
                          <samplecharacteristics>
                            <rate>
                              <timebase>30</timebase>
                              <ntsc>TRUE</ntsc>
                            </rate>
                            <width>1920</width>
                            <height>1080</height>
                            <anamorphic>FALSE</anamorphic>
                            <pixelaspectratio>square</pixelaspectratio>
                            <fielddominance>none</fielddominance>
                            <colordepth>24</colordepth>
                          </samplecharacteristics>
                        </video>
                      </media>
                    </file>
                  </clipitem>
                </track>
              </video>
            </media>
          </clip>
          <clip frameBlend="FALSE" id="masterclip-75">
            <masterclipid>masterclip-75</masterclipid>
            <ismasterclip>TRUE</ismasterclip>
            <duration>150</duration>
            <rate>
              <timebase>30</timebase>
              <ntsc>TRUE</ntsc>
            </rate>
            <name>credL_27.png</name>
            <media>
              <video>
                <track>
                  <clipitem frameBlend="FALSE" id="clipitem-75">
                    <masterclipid>masterclip-75</masterclipid>
                    <name>credL_27.png</name>
                    <file id="file-75">
                      <name>credL_27.png</name>
                      <pathurl>file://localhost/C%3a/netrunner/important%20stuff/credits/creditoverlays/credL_27.png</pathurl>
                      <rate>
                        <timebase>30</timebase>
                        <ntsc>TRUE</ntsc>
                      </rate>
                      <media>
                        <video>
                          <duration>18000</duration>
                          <samplecharacteristics>
                            <rate>
                              <timebase>30</timebase>
                              <ntsc>TRUE</ntsc>
                            </rate>
                            <width>1920</width>
                            <height>1080</height>
                            <anamorphic>FALSE</anamorphic>
                            <pixelaspectratio>square</pixelaspectratio>
                            <fielddominance>none</fielddominance>
                            <colordepth>24</colordepth>
                          </samplecharacteristics>
                        </video>
                      </media>
                    </file>
                  </clipitem>
                </track>
              </video>
            </media>
          </clip>
          <clip frameBlend="FALSE" id="masterclip-76">
            <masterclipid>masterclip-76</masterclipid>
            <ismasterclip>TRUE</ismasterclip>
            <duration>150</duration>
            <rate>
              <timebase>30</timebase>
              <ntsc>TRUE</ntsc>
            </rate>
            <name>credR_27.png</name>
            <media>
              <video>
                <track>
                  <clipitem frameBlend="FALSE" id="clipitem-76">
                    <masterclipid>masterclip-76</masterclipid>
                    <name>credR_27.png</name>
                    <file id="file-76">
                      <name>credR_27.png</name>
                      <pathurl>file://localhost/C%3a/netrunner/important%20stuff/credits/creditoverlays/credR_27.png</pathurl>
                      <rate>
                        <timebase>30</timebase>
                        <ntsc>TRUE</ntsc>
                      </rate>
                      <media>
                        <video>
                          <duration>18000</duration>
                          <samplecharacteristics>
                            <rate>
                              <timebase>30</timebase>
                              <ntsc>TRUE</ntsc>
                            </rate>
                            <width>1920</width>
                            <height>1080</height>
                            <anamorphic>FALSE</anamorphic>
                            <pixelaspectratio>square</pixelaspectratio>
                            <fielddominance>none</fielddominance>
                            <colordepth>24</colordepth>
                          </samplecharacteristics>
                        </video>
                      </media>
                    </file>
                  </clipitem>
                </track>
              </video>
            </media>
          </clip>
          <clip frameBlend="FALSE" id="masterclip-77">
            <masterclipid>masterclip-77</masterclipid>
            <ismasterclip>TRUE</ismasterclip>
            <duration>150</duration>
            <rate>
              <timebase>30</timebase>
              <ntsc>TRUE</ntsc>
            </rate>
            <name>credL_28.png</name>
            <media>
              <video>
                <track>
                  <clipitem frameBlend="FALSE" id="clipitem-77">
                    <masterclipid>masterclip-77</masterclipid>
                    <name>credL_28.png</name>
                    <file id="file-77">
                      <name>credL_28.png</name>
                      <pathurl>file://localhost/C%3a/netrunner/important%20stuff/credits/creditoverlays/credL_28.png</pathurl>
                      <rate>
                        <timebase>30</timebase>
                        <ntsc>TRUE</ntsc>
                      </rate>
                      <media>
                        <video>
                          <duration>18000</duration>
                          <samplecharacteristics>
                            <rate>
                              <timebase>30</timebase>
                              <ntsc>TRUE</ntsc>
                            </rate>
                            <width>1920</width>
                            <height>1080</height>
                            <anamorphic>FALSE</anamorphic>
                            <pixelaspectratio>square</pixelaspectratio>
                            <fielddominance>none</fielddominance>
                            <colordepth>24</colordepth>
                          </samplecharacteristics>
                        </video>
                      </media>
                    </file>
                  </clipitem>
                </track>
              </video>
            </media>
          </clip>
          <clip frameBlend="FALSE" id="masterclip-78">
            <masterclipid>masterclip-78</masterclipid>
            <ismasterclip>TRUE</ismasterclip>
            <duration>150</duration>
            <rate>
              <timebase>30</timebase>
              <ntsc>TRUE</ntsc>
            </rate>
            <name>credR_28.png</name>
            <media>
              <video>
                <track>
                  <clipitem frameBlend="FALSE" id="clipitem-78">
                    <masterclipid>masterclip-78</masterclipid>
                    <name>credR_28.png</name>
                    <file id="file-78">
                      <name>credR_28.png</name>
                      <pathurl>file://localhost/C%3a/netrunner/important%20stuff/credits/creditoverlays/credR_28.png</pathurl>
                      <rate>
                        <timebase>30</timebase>
                        <ntsc>TRUE</ntsc>
                      </rate>
                      <media>
                        <video>
                          <duration>18000</duration>
                          <samplecharacteristics>
                            <rate>
                              <timebase>30</timebase>
                              <ntsc>TRUE</ntsc>
                            </rate>
                            <width>1920</width>
                            <height>1080</height>
                            <anamorphic>FALSE</anamorphic>
                            <pixelaspectratio>square</pixelaspectratio>
                            <fielddominance>none</fielddominance>
                            <colordepth>24</colordepth>
                          </samplecharacteristics>
                        </video>
                      </media>
                    </file>
                  </clipitem>
                </track>
              </video>
            </media>
          </clip>
          <clip frameBlend="FALSE" id="masterclip-79">
            <masterclipid>masterclip-79</masterclipid>
            <ismasterclip>TRUE</ismasterclip>
            <duration>150</duration>
            <rate>
              <timebase>30</timebase>
              <ntsc>TRUE</ntsc>
            </rate>
            <name>credL_29.png</name>
            <media>
              <video>
                <track>
                  <clipitem frameBlend="FALSE" id="clipitem-79">
                    <masterclipid>masterclip-79</masterclipid>
                    <name>credL_29.png</name>
                    <file id="file-79">
                      <name>credL_29.png</name>
                      <pathurl>file://localhost/C%3a/netrunner/important%20stuff/credits/creditoverlays/credL_29.png</pathurl>
                      <rate>
                        <timebase>30</timebase>
                        <ntsc>TRUE</ntsc>
                      </rate>
                      <media>
                        <video>
                          <duration>18000</duration>
                          <samplecharacteristics>
                            <rate>
                              <timebase>30</timebase>
                              <ntsc>TRUE</ntsc>
                            </rate>
                            <width>1920</width>
                            <height>1080</height>
                            <anamorphic>FALSE</anamorphic>
                            <pixelaspectratio>square</pixelaspectratio>
                            <fielddominance>none</fielddominance>
                            <colordepth>24</colordepth>
                          </samplecharacteristics>
                        </video>
                      </media>
                    </file>
                  </clipitem>
                </track>
              </video>
            </media>
          </clip>
          <clip frameBlend="FALSE" id="masterclip-80">
            <masterclipid>masterclip-80</masterclipid>
            <ismasterclip>TRUE</ismasterclip>
            <duration>150</duration>
            <rate>
              <timebase>30</timebase>
              <ntsc>TRUE</ntsc>
            </rate>
            <name>credR_29.png</name>
            <media>
              <video>
                <track>
                  <clipitem frameBlend="FALSE" id="clipitem-80">
                    <masterclipid>masterclip-80</masterclipid>
                    <name>credR_29.png</name>
                    <file id="file-80">
                      <name>credR_29.png</name>
                      <pathurl>file://localhost/C%3a/netrunner/important%20stuff/credits/creditoverlays/credR_29.png</pathurl>
                      <rate>
                        <timebase>30</timebase>
                        <ntsc>TRUE</ntsc>
                      </rate>
                      <media>
                        <video>
                          <duration>18000</duration>
                          <samplecharacteristics>
                            <rate>
                              <timebase>30</timebase>
                              <ntsc>TRUE</ntsc>
                            </rate>
                            <width>1920</width>
                            <height>1080</height>
                            <anamorphic>FALSE</anamorphic>
                            <pixelaspectratio>square</pixelaspectratio>
                            <fielddominance>none</fielddominance>
                            <colordepth>24</colordepth>
                          </samplecharacteristics>
                        </video>
                      </media>
                    </file>
                  </clipitem>
                </track>
              </video>
            </media>
          </clip>
          <clip frameBlend="FALSE" id="masterclip-81">
            <masterclipid>masterclip-81</masterclipid>
            <ismasterclip>TRUE</ismasterclip>
            <duration>150</duration>
            <rate>
              <timebase>30</timebase>
              <ntsc>TRUE</ntsc>
            </rate>
            <name>credL_30.png</name>
            <media>
              <video>
                <track>
                  <clipitem frameBlend="FALSE" id="clipitem-81">
                    <masterclipid>masterclip-81</masterclipid>
                    <name>credL_30.png</name>
                    <file id="file-81">
                      <name>credL_30.png</name>
                      <pathurl>file://localhost/C%3a/netrunner/important%20stuff/credits/creditoverlays/credL_30.png</pathurl>
                      <rate>
                        <timebase>30</timebase>
                        <ntsc>TRUE</ntsc>
                      </rate>
                      <media>
                        <video>
                          <duration>18000</duration>
                          <samplecharacteristics>
                            <rate>
                              <timebase>30</timebase>
                              <ntsc>TRUE</ntsc>
                            </rate>
                            <width>1920</width>
                            <height>1080</height>
                            <anamorphic>FALSE</anamorphic>
                            <pixelaspectratio>square</pixelaspectratio>
                            <fielddominance>none</fielddominance>
                            <colordepth>24</colordepth>
                          </samplecharacteristics>
                        </video>
                      </media>
                    </file>
                  </clipitem>
                </track>
              </video>
            </media>
          </clip>
          <clip frameBlend="FALSE" id="masterclip-82">
            <masterclipid>masterclip-82</masterclipid>
            <ismasterclip>TRUE</ismasterclip>
            <duration>150</duration>
            <rate>
              <timebase>30</timebase>
              <ntsc>TRUE</ntsc>
            </rate>
            <name>credR_30.png</name>
            <media>
              <video>
                <track>
                  <clipitem frameBlend="FALSE" id="clipitem-82">
                    <masterclipid>masterclip-82</masterclipid>
                    <name>credR_30.png</name>
                    <file id="file-82">
                      <name>credR_30.png</name>
                      <pathurl>file://localhost/C%3a/netrunner/important%20stuff/credits/creditoverlays/credR_30.png</pathurl>
                      <rate>
                        <timebase>30</timebase>
                        <ntsc>TRUE</ntsc>
                      </rate>
                      <media>
                        <video>
                          <duration>18000</duration>
                          <samplecharacteristics>
                            <rate>
                              <timebase>30</timebase>
                              <ntsc>TRUE</ntsc>
                            </rate>
                            <width>1920</width>
                            <height>1080</height>
                            <anamorphic>FALSE</anamorphic>
                            <pixelaspectratio>square</pixelaspectratio>
                            <fielddominance>none</fielddominance>
                            <colordepth>24</colordepth>
                          </samplecharacteristics>
                        </video>
                      </media>
                    </file>
                  </clipitem>
                </track>
              </video>
            </media>
          </clip>
          <clip frameBlend="FALSE" id="masterclip-83">
            <masterclipid>masterclip-83</masterclipid>
            <ismasterclip>TRUE</ismasterclip>
            <duration>150</duration>
            <rate>
              <timebase>30</timebase>
              <ntsc>TRUE</ntsc>
            </rate>
            <name>credL_31.png</name>
            <media>
              <video>
                <track>
                  <clipitem frameBlend="FALSE" id="clipitem-83">
                    <masterclipid>masterclip-83</masterclipid>
                    <name>credL_31.png</name>
                    <file id="file-83">
                      <name>credL_31.png</name>
                      <pathurl>file://localhost/C%3a/netrunner/important%20stuff/credits/creditoverlays/credL_31.png</pathurl>
                      <rate>
                        <timebase>30</timebase>
                        <ntsc>TRUE</ntsc>
                      </rate>
                      <media>
                        <video>
                          <duration>18000</duration>
                          <samplecharacteristics>
                            <rate>
                              <timebase>30</timebase>
                              <ntsc>TRUE</ntsc>
                            </rate>
                            <width>1920</width>
                            <height>1080</height>
                            <anamorphic>FALSE</anamorphic>
                            <pixelaspectratio>square</pixelaspectratio>
                            <fielddominance>none</fielddominance>
                            <colordepth>24</colordepth>
                          </samplecharacteristics>
                        </video>
                      </media>
                    </file>
                  </clipitem>
                </track>
              </video>
            </media>
          </clip>
          <clip frameBlend="FALSE" id="masterclip-84">
            <masterclipid>masterclip-84</masterclipid>
            <ismasterclip>TRUE</ismasterclip>
            <duration>150</duration>
            <rate>
              <timebase>30</timebase>
              <ntsc>TRUE</ntsc>
            </rate>
            <name>credR_31.png</name>
            <media>
              <video>
                <track>
                  <clipitem frameBlend="FALSE" id="clipitem-84">
                    <masterclipid>masterclip-84</masterclipid>
                    <name>credR_31.png</name>
                    <file id="file-84">
                      <name>credR_31.png</name>
                      <pathurl>file://localhost/C%3a/netrunner/important%20stuff/credits/creditoverlays/credR_31.png</pathurl>
                      <rate>
                        <timebase>30</timebase>
                        <ntsc>TRUE</ntsc>
                      </rate>
                      <media>
                        <video>
                          <duration>18000</duration>
                          <samplecharacteristics>
                            <rate>
                              <timebase>30</timebase>
                              <ntsc>TRUE</ntsc>
                            </rate>
                            <width>1920</width>
                            <height>1080</height>
                            <anamorphic>FALSE</anamorphic>
                            <pixelaspectratio>square</pixelaspectratio>
                            <fielddominance>none</fielddominance>
                            <colordepth>24</colordepth>
                          </samplecharacteristics>
                        </video>
                      </media>
                    </file>
                  </clipitem>
                </track>
              </video>
            </media>
          </clip>
          <clip frameBlend="FALSE" id="masterclip-85">
            <masterclipid>masterclip-85</masterclipid>
            <ismasterclip>TRUE</ismasterclip>
            <duration>150</duration>
            <rate>
              <timebase>30</timebase>
              <ntsc>TRUE</ntsc>
            </rate>
            <name>credL_32.png</name>
            <media>
              <video>
                <track>
                  <clipitem frameBlend="FALSE" id="clipitem-85">
                    <masterclipid>masterclip-85</masterclipid>
                    <name>credL_32.png</name>
                    <file id="file-85">
                      <name>credL_32.png</name>
                      <pathurl>file://localhost/C%3a/netrunner/important%20stuff/credits/creditoverlays/credL_32.png</pathurl>
                      <rate>
                        <timebase>30</timebase>
                        <ntsc>TRUE</ntsc>
                      </rate>
                      <media>
                        <video>
                          <duration>18000</duration>
                          <samplecharacteristics>
                            <rate>
                              <timebase>30</timebase>
                              <ntsc>TRUE</ntsc>
                            </rate>
                            <width>1920</width>
                            <height>1080</height>
                            <anamorphic>FALSE</anamorphic>
                            <pixelaspectratio>square</pixelaspectratio>
                            <fielddominance>none</fielddominance>
                            <colordepth>24</colordepth>
                          </samplecharacteristics>
                        </video>
                      </media>
                    </file>
                  </clipitem>
                </track>
              </video>
            </media>
          </clip>
          <clip frameBlend="FALSE" id="masterclip-86">
            <masterclipid>masterclip-86</masterclipid>
            <ismasterclip>TRUE</ismasterclip>
            <duration>150</duration>
            <rate>
              <timebase>30</timebase>
              <ntsc>TRUE</ntsc>
            </rate>
            <name>credR_32.png</name>
            <media>
              <video>
                <track>
                  <clipitem frameBlend="FALSE" id="clipitem-86">
                    <masterclipid>masterclip-86</masterclipid>
                    <name>credR_32.png</name>
                    <file id="file-86">
                      <name>credR_32.png</name>
                      <pathurl>file://localhost/C%3a/netrunner/important%20stuff/credits/creditoverlays/credR_32.png</pathurl>
                      <rate>
                        <timebase>30</timebase>
                        <ntsc>TRUE</ntsc>
                      </rate>
                      <media>
                        <video>
                          <duration>18000</duration>
                          <samplecharacteristics>
                            <rate>
                              <timebase>30</timebase>
                              <ntsc>TRUE</ntsc>
                            </rate>
                            <width>1920</width>
                            <height>1080</height>
                            <anamorphic>FALSE</anamorphic>
                            <pixelaspectratio>square</pixelaspectratio>
                            <fielddominance>none</fielddominance>
                            <colordepth>24</colordepth>
                          </samplecharacteristics>
                        </video>
                      </media>
                    </file>
                  </clipitem>
                </track>
              </video>
            </media>
          </clip>
          <clip frameBlend="FALSE" id="masterclip-87">
            <masterclipid>masterclip-87</masterclipid>
            <ismasterclip>TRUE</ismasterclip>
            <duration>150</duration>
            <rate>
              <timebase>30</timebase>
              <ntsc>TRUE</ntsc>
            </rate>
            <name>credL_33.png</name>
            <media>
              <video>
                <track>
                  <clipitem frameBlend="FALSE" id="clipitem-87">
                    <masterclipid>masterclip-87</masterclipid>
                    <name>credL_33.png</name>
                    <file id="file-87">
                      <name>credL_33.png</name>
                      <pathurl>file://localhost/C%3a/netrunner/important%20stuff/credits/creditoverlays/credL_33.png</pathurl>
                      <rate>
                        <timebase>30</timebase>
                        <ntsc>TRUE</ntsc>
                      </rate>
                      <media>
                        <video>
                          <duration>18000</duration>
                          <samplecharacteristics>
                            <rate>
                              <timebase>30</timebase>
                              <ntsc>TRUE</ntsc>
                            </rate>
                            <width>1920</width>
                            <height>1080</height>
                            <anamorphic>FALSE</anamorphic>
                            <pixelaspectratio>square</pixelaspectratio>
                            <fielddominance>none</fielddominance>
                            <colordepth>24</colordepth>
                          </samplecharacteristics>
                        </video>
                      </media>
                    </file>
                  </clipitem>
                </track>
              </video>
            </media>
          </clip>
          <clip frameBlend="FALSE" id="masterclip-88">
            <masterclipid>masterclip-88</masterclipid>
            <ismasterclip>TRUE</ismasterclip>
            <duration>150</duration>
            <rate>
              <timebase>30</timebase>
              <ntsc>TRUE</ntsc>
            </rate>
            <name>credR_33.png</name>
            <media>
              <video>
                <track>
                  <clipitem frameBlend="FALSE" id="clipitem-88">
                    <masterclipid>masterclip-88</masterclipid>
                    <name>credR_33.png</name>
                    <file id="file-88">
                      <name>credR_33.png</name>
                      <pathurl>file://localhost/C%3a/netrunner/important%20stuff/credits/creditoverlays/credR_33.png</pathurl>
                      <rate>
                        <timebase>30</timebase>
                        <ntsc>TRUE</ntsc>
                      </rate>
                      <media>
                        <video>
                          <duration>18000</duration>
                          <samplecharacteristics>
                            <rate>
                              <timebase>30</timebase>
                              <ntsc>TRUE</ntsc>
                            </rate>
                            <width>1920</width>
                            <height>1080</height>
                            <anamorphic>FALSE</anamorphic>
                            <pixelaspectratio>square</pixelaspectratio>
                            <fielddominance>none</fielddominance>
                            <colordepth>24</colordepth>
                          </samplecharacteristics>
                        </video>
                      </media>
                    </file>
                  </clipitem>
                </track>
              </video>
            </media>
          </clip>
          <clip frameBlend="FALSE" id="masterclip-89">
            <masterclipid>masterclip-89</masterclipid>
            <ismasterclip>TRUE</ismasterclip>
            <duration>150</duration>
            <rate>
              <timebase>30</timebase>
              <ntsc>TRUE</ntsc>
            </rate>
            <name>credL_34.png</name>
            <media>
              <video>
                <track>
                  <clipitem frameBlend="FALSE" id="clipitem-89">
                    <masterclipid>masterclip-89</masterclipid>
                    <name>credL_34.png</name>
                    <file id="file-89">
                      <name>credL_34.png</name>
                      <pathurl>file://localhost/C%3a/netrunner/important%20stuff/credits/creditoverlays/credL_34.png</pathurl>
                      <rate>
                        <timebase>30</timebase>
                        <ntsc>TRUE</ntsc>
                      </rate>
                      <media>
                        <video>
                          <duration>18000</duration>
                          <samplecharacteristics>
                            <rate>
                              <timebase>30</timebase>
                              <ntsc>TRUE</ntsc>
                            </rate>
                            <width>1920</width>
                            <height>1080</height>
                            <anamorphic>FALSE</anamorphic>
                            <pixelaspectratio>square</pixelaspectratio>
                            <fielddominance>none</fielddominance>
                            <colordepth>24</colordepth>
                          </samplecharacteristics>
                        </video>
                      </media>
                    </file>
                  </clipitem>
                </track>
              </video>
            </media>
          </clip>
          <clip frameBlend="FALSE" id="masterclip-90">
            <masterclipid>masterclip-90</masterclipid>
            <ismasterclip>TRUE</ismasterclip>
            <duration>150</duration>
            <rate>
              <timebase>30</timebase>
              <ntsc>TRUE</ntsc>
            </rate>
            <name>credR_34.png</name>
            <media>
              <video>
                <track>
                  <clipitem frameBlend="FALSE" id="clipitem-90">
                    <masterclipid>masterclip-90</masterclipid>
                    <name>credR_34.png</name>
                    <file id="file-90">
                      <name>credR_34.png</name>
                      <pathurl>file://localhost/C%3a/netrunner/important%20stuff/credits/creditoverlays/credR_34.png</pathurl>
                      <rate>
                        <timebase>30</timebase>
                        <ntsc>TRUE</ntsc>
                      </rate>
                      <media>
                        <video>
                          <duration>18000</duration>
                          <samplecharacteristics>
                            <rate>
                              <timebase>30</timebase>
                              <ntsc>TRUE</ntsc>
                            </rate>
                            <width>1920</width>
                            <height>1080</height>
                            <anamorphic>FALSE</anamorphic>
                            <pixelaspectratio>square</pixelaspectratio>
                            <fielddominance>none</fielddominance>
                            <colordepth>24</colordepth>
                          </samplecharacteristics>
                        </video>
                      </media>
                    </file>
                  </clipitem>
                </track>
              </video>
            </media>
          </clip>
          <clip frameBlend="FALSE" id="masterclip-91">
            <masterclipid>masterclip-91</masterclipid>
            <ismasterclip>TRUE</ismasterclip>
            <duration>150</duration>
            <rate>
              <timebase>30</timebase>
              <ntsc>TRUE</ntsc>
            </rate>
            <name>credL_35.png</name>
            <media>
              <video>
                <track>
                  <clipitem frameBlend="FALSE" id="clipitem-91">
                    <masterclipid>masterclip-91</masterclipid>
                    <name>credL_35.png</name>
                    <file id="file-91">
                      <name>credL_35.png</name>
                      <pathurl>file://localhost/C%3a/netrunner/important%20stuff/credits/creditoverlays/credL_35.png</pathurl>
                      <rate>
                        <timebase>30</timebase>
                        <ntsc>TRUE</ntsc>
                      </rate>
                      <media>
                        <video>
                          <duration>18000</duration>
                          <samplecharacteristics>
                            <rate>
                              <timebase>30</timebase>
                              <ntsc>TRUE</ntsc>
                            </rate>
                            <width>1920</width>
                            <height>1080</height>
                            <anamorphic>FALSE</anamorphic>
                            <pixelaspectratio>square</pixelaspectratio>
                            <fielddominance>none</fielddominance>
                            <colordepth>24</colordepth>
                          </samplecharacteristics>
                        </video>
                      </media>
                    </file>
                  </clipitem>
                </track>
              </video>
            </media>
          </clip>
          <clip frameBlend="FALSE" id="masterclip-92">
            <masterclipid>masterclip-92</masterclipid>
            <ismasterclip>TRUE</ismasterclip>
            <duration>150</duration>
            <rate>
              <timebase>30</timebase>
              <ntsc>TRUE</ntsc>
            </rate>
            <name>credR_35.png</name>
            <media>
              <video>
                <track>
                  <clipitem frameBlend="FALSE" id="clipitem-92">
                    <masterclipid>masterclip-92</masterclipid>
                    <name>credR_35.png</name>
                    <file id="file-92">
                      <name>credR_35.png</name>
                      <pathurl>file://localhost/C%3a/netrunner/important%20stuff/credits/creditoverlays/credR_35.png</pathurl>
                      <rate>
                        <timebase>30</timebase>
                        <ntsc>TRUE</ntsc>
                      </rate>
                      <media>
                        <video>
                          <duration>18000</duration>
                          <samplecharacteristics>
                            <rate>
                              <timebase>30</timebase>
                              <ntsc>TRUE</ntsc>
                            </rate>
                            <width>1920</width>
                            <height>1080</height>
                            <anamorphic>FALSE</anamorphic>
                            <pixelaspectratio>square</pixelaspectratio>
                            <fielddominance>none</fielddominance>
                            <colordepth>24</colordepth>
                          </samplecharacteristics>
                        </video>
                      </media>
                    </file>
                  </clipitem>
                </track>
              </video>
            </media>
          </clip>
          <clip frameBlend="FALSE" id="masterclip-93">
            <masterclipid>masterclip-93</masterclipid>
            <ismasterclip>TRUE</ismasterclip>
            <duration>150</duration>
            <rate>
              <timebase>30</timebase>
              <ntsc>TRUE</ntsc>
            </rate>
            <name>credL_36.png</name>
            <media>
              <video>
                <track>
                  <clipitem frameBlend="FALSE" id="clipitem-93">
                    <masterclipid>masterclip-93</masterclipid>
                    <name>credL_36.png</name>
                    <file id="file-93">
                      <name>credL_36.png</name>
                      <pathurl>file://localhost/C%3a/netrunner/important%20stuff/credits/creditoverlays/credL_36.png</pathurl>
                      <rate>
                        <timebase>30</timebase>
                        <ntsc>TRUE</ntsc>
                      </rate>
                      <media>
                        <video>
                          <duration>18000</duration>
                          <samplecharacteristics>
                            <rate>
                              <timebase>30</timebase>
                              <ntsc>TRUE</ntsc>
                            </rate>
                            <width>1920</width>
                            <height>1080</height>
                            <anamorphic>FALSE</anamorphic>
                            <pixelaspectratio>square</pixelaspectratio>
                            <fielddominance>none</fielddominance>
                            <colordepth>24</colordepth>
                          </samplecharacteristics>
                        </video>
                      </media>
                    </file>
                  </clipitem>
                </track>
              </video>
            </media>
          </clip>
          <clip frameBlend="FALSE" id="masterclip-94">
            <masterclipid>masterclip-94</masterclipid>
            <ismasterclip>TRUE</ismasterclip>
            <duration>150</duration>
            <rate>
              <timebase>30</timebase>
              <ntsc>TRUE</ntsc>
            </rate>
            <name>credR_36.png</name>
            <media>
              <video>
                <track>
                  <clipitem frameBlend="FALSE" id="clipitem-94">
                    <masterclipid>masterclip-94</masterclipid>
                    <name>credR_36.png</name>
                    <file id="file-94">
                      <name>credR_36.png</name>
                      <pathurl>file://localhost/C%3a/netrunner/important%20stuff/credits/creditoverlays/credR_36.png</pathurl>
                      <rate>
                        <timebase>30</timebase>
                        <ntsc>TRUE</ntsc>
                      </rate>
                      <media>
                        <video>
                          <duration>18000</duration>
                          <samplecharacteristics>
                            <rate>
                              <timebase>30</timebase>
                              <ntsc>TRUE</ntsc>
                            </rate>
                            <width>1920</width>
                            <height>1080</height>
                            <anamorphic>FALSE</anamorphic>
                            <pixelaspectratio>square</pixelaspectratio>
                            <fielddominance>none</fielddominance>
                            <colordepth>24</colordepth>
                          </samplecharacteristics>
                        </video>
                      </media>
                    </file>
                  </clipitem>
                </track>
              </video>
            </media>
          </clip>
          <clip frameBlend="FALSE" id="masterclip-95">
            <masterclipid>masterclip-95</masterclipid>
            <ismasterclip>TRUE</ismasterclip>
            <duration>150</duration>
            <rate>
              <timebase>30</timebase>
              <ntsc>TRUE</ntsc>
            </rate>
            <name>credL_37.png</name>
            <media>
              <video>
                <track>
                  <clipitem frameBlend="FALSE" id="clipitem-95">
                    <masterclipid>masterclip-95</masterclipid>
                    <name>credL_37.png</name>
                    <file id="file-95">
                      <name>credL_37.png</name>
                      <pathurl>file://localhost/C%3a/netrunner/important%20stuff/credits/creditoverlays/credL_37.png</pathurl>
                      <rate>
                        <timebase>30</timebase>
                        <ntsc>TRUE</ntsc>
                      </rate>
                      <media>
                        <video>
                          <duration>18000</duration>
                          <samplecharacteristics>
                            <rate>
                              <timebase>30</timebase>
                              <ntsc>TRUE</ntsc>
                            </rate>
                            <width>1920</width>
                            <height>1080</height>
                            <anamorphic>FALSE</anamorphic>
                            <pixelaspectratio>square</pixelaspectratio>
                            <fielddominance>none</fielddominance>
                            <colordepth>24</colordepth>
                          </samplecharacteristics>
                        </video>
                      </media>
                    </file>
                  </clipitem>
                </track>
              </video>
            </media>
          </clip>
          <clip frameBlend="FALSE" id="masterclip-96">
            <masterclipid>masterclip-96</masterclipid>
            <ismasterclip>TRUE</ismasterclip>
            <duration>150</duration>
            <rate>
              <timebase>30</timebase>
              <ntsc>TRUE</ntsc>
            </rate>
            <name>credR_37.png</name>
            <media>
              <video>
                <track>
                  <clipitem frameBlend="FALSE" id="clipitem-96">
                    <masterclipid>masterclip-96</masterclipid>
                    <name>credR_37.png</name>
                    <file id="file-96">
                      <name>credR_37.png</name>
                      <pathurl>file://localhost/C%3a/netrunner/important%20stuff/credits/creditoverlays/credR_37.png</pathurl>
                      <rate>
                        <timebase>30</timebase>
                        <ntsc>TRUE</ntsc>
                      </rate>
                      <media>
                        <video>
                          <duration>18000</duration>
                          <samplecharacteristics>
                            <rate>
                              <timebase>30</timebase>
                              <ntsc>TRUE</ntsc>
                            </rate>
                            <width>1920</width>
                            <height>1080</height>
                            <anamorphic>FALSE</anamorphic>
                            <pixelaspectratio>square</pixelaspectratio>
                            <fielddominance>none</fielddominance>
                            <colordepth>24</colordepth>
                          </samplecharacteristics>
                        </video>
                      </media>
                    </file>
                  </clipitem>
                </track>
              </video>
            </media>
          </clip>
          <clip frameBlend="FALSE" id="masterclip-97">
            <masterclipid>masterclip-97</masterclipid>
            <ismasterclip>TRUE</ismasterclip>
            <duration>150</duration>
            <rate>
              <timebase>30</timebase>
              <ntsc>TRUE</ntsc>
            </rate>
            <name>credL_38.png</name>
            <media>
              <video>
                <track>
                  <clipitem frameBlend="FALSE" id="clipitem-97">
                    <masterclipid>masterclip-97</masterclipid>
                    <name>credL_38.png</name>
                    <file id="file-97">
                      <name>credL_38.png</name>
                      <pathurl>file://localhost/C%3a/netrunner/important%20stuff/credits/creditoverlays/credL_38.png</pathurl>
                      <rate>
                        <timebase>30</timebase>
                        <ntsc>TRUE</ntsc>
                      </rate>
                      <media>
                        <video>
                          <duration>18000</duration>
                          <samplecharacteristics>
                            <rate>
                              <timebase>30</timebase>
                              <ntsc>TRUE</ntsc>
                            </rate>
                            <width>1920</width>
                            <height>1080</height>
                            <anamorphic>FALSE</anamorphic>
                            <pixelaspectratio>square</pixelaspectratio>
                            <fielddominance>none</fielddominance>
                            <colordepth>24</colordepth>
                          </samplecharacteristics>
                        </video>
                      </media>
                    </file>
                  </clipitem>
                </track>
              </video>
            </media>
          </clip>
          <clip frameBlend="FALSE" id="masterclip-98">
            <masterclipid>masterclip-98</masterclipid>
            <ismasterclip>TRUE</ismasterclip>
            <duration>150</duration>
            <rate>
              <timebase>30</timebase>
              <ntsc>TRUE</ntsc>
            </rate>
            <name>credR_38.png</name>
            <media>
              <video>
                <track>
                  <clipitem frameBlend="FALSE" id="clipitem-98">
                    <masterclipid>masterclip-98</masterclipid>
                    <name>credR_38.png</name>
                    <file id="file-98">
                      <name>credR_38.png</name>
                      <pathurl>file://localhost/C%3a/netrunner/important%20stuff/credits/creditoverlays/credR_38.png</pathurl>
                      <rate>
                        <timebase>30</timebase>
                        <ntsc>TRUE</ntsc>
                      </rate>
                      <media>
                        <video>
                          <duration>18000</duration>
                          <samplecharacteristics>
                            <rate>
                              <timebase>30</timebase>
                              <ntsc>TRUE</ntsc>
                            </rate>
                            <width>1920</width>
                            <height>1080</height>
                            <anamorphic>FALSE</anamorphic>
                            <pixelaspectratio>square</pixelaspectratio>
                            <fielddominance>none</fielddominance>
                            <colordepth>24</colordepth>
                          </samplecharacteristics>
                        </video>
                      </media>
                    </file>
                  </clipitem>
                </track>
              </video>
            </media>
          </clip>
          <clip frameBlend="FALSE" id="masterclip-99">
            <masterclipid>masterclip-99</masterclipid>
            <ismasterclip>TRUE</ismasterclip>
            <duration>150</duration>
            <rate>
              <timebase>30</timebase>
              <ntsc>TRUE</ntsc>
            </rate>
            <name>credL_39.png</name>
            <media>
              <video>
                <track>
                  <clipitem frameBlend="FALSE" id="clipitem-99">
                    <masterclipid>masterclip-99</masterclipid>
                    <name>credL_39.png</name>
                    <file id="file-99">
                      <name>credL_39.png</name>
                      <pathurl>file://localhost/C%3a/netrunner/important%20stuff/credits/creditoverlays/credL_39.png</pathurl>
                      <rate>
                        <timebase>30</timebase>
                        <ntsc>TRUE</ntsc>
                      </rate>
                      <media>
                        <video>
                          <duration>18000</duration>
                          <samplecharacteristics>
                            <rate>
                              <timebase>30</timebase>
                              <ntsc>TRUE</ntsc>
                            </rate>
                            <width>1920</width>
                            <height>1080</height>
                            <anamorphic>FALSE</anamorphic>
                            <pixelaspectratio>square</pixelaspectratio>
                            <fielddominance>none</fielddominance>
                            <colordepth>24</colordepth>
                          </samplecharacteristics>
                        </video>
                      </media>
                    </file>
                  </clipitem>
                </track>
              </video>
            </media>
          </clip>
          <clip frameBlend="FALSE" id="masterclip-100">
            <masterclipid>masterclip-100</masterclipid>
            <ismasterclip>TRUE</ismasterclip>
            <duration>150</duration>
            <rate>
              <timebase>30</timebase>
              <ntsc>TRUE</ntsc>
            </rate>
            <name>credR_39.png</name>
            <media>
              <video>
                <track>
                  <clipitem frameBlend="FALSE" id="clipitem-100">
                    <masterclipid>masterclip-100</masterclipid>
                    <name>credR_39.png</name>
                    <file id="file-100">
                      <name>credR_39.png</name>
                      <pathurl>file://localhost/C%3a/netrunner/important%20stuff/credits/creditoverlays/credR_39.png</pathurl>
                      <rate>
                        <timebase>30</timebase>
                        <ntsc>TRUE</ntsc>
                      </rate>
                      <media>
                        <video>
                          <duration>18000</duration>
                          <samplecharacteristics>
                            <rate>
                              <timebase>30</timebase>
                              <ntsc>TRUE</ntsc>
                            </rate>
                            <width>1920</width>
                            <height>1080</height>
                            <anamorphic>FALSE</anamorphic>
                            <pixelaspectratio>square</pixelaspectratio>
                            <fielddominance>none</fielddominance>
                            <colordepth>24</colordepth>
                          </samplecharacteristics>
                        </video>
                      </media>
                    </file>
                  </clipitem>
                </track>
              </video>
            </media>
          </clip>
          <clip frameBlend="FALSE" id="masterclip-101">
            <masterclipid>masterclip-101</masterclipid>
            <ismasterclip>TRUE</ismasterclip>
            <duration>150</duration>
            <rate>
              <timebase>30</timebase>
              <ntsc>TRUE</ntsc>
            </rate>
            <name>credL_40.png</name>
            <media>
              <video>
                <track>
                  <clipitem frameBlend="FALSE" id="clipitem-101">
                    <masterclipid>masterclip-101</masterclipid>
                    <name>credL_40.png</name>
                    <file id="file-101">
                      <name>credL_40.png</name>
                      <pathurl>file://localhost/C%3a/netrunner/important%20stuff/credits/creditoverlays/credL_40.png</pathurl>
                      <rate>
                        <timebase>30</timebase>
                        <ntsc>TRUE</ntsc>
                      </rate>
                      <media>
                        <video>
                          <duration>18000</duration>
                          <samplecharacteristics>
                            <rate>
                              <timebase>30</timebase>
                              <ntsc>TRUE</ntsc>
                            </rate>
                            <width>1920</width>
                            <height>1080</height>
                            <anamorphic>FALSE</anamorphic>
                            <pixelaspectratio>square</pixelaspectratio>
                            <fielddominance>none</fielddominance>
                            <colordepth>24</colordepth>
                          </samplecharacteristics>
                        </video>
                      </media>
                    </file>
                  </clipitem>
                </track>
              </video>
            </media>
          </clip>
          <clip frameBlend="FALSE" id="masterclip-102">
            <masterclipid>masterclip-102</masterclipid>
            <ismasterclip>TRUE</ismasterclip>
            <duration>150</duration>
            <rate>
              <timebase>30</timebase>
              <ntsc>TRUE</ntsc>
            </rate>
            <name>credR_40.png</name>
            <media>
              <video>
                <track>
                  <clipitem frameBlend="FALSE" id="clipitem-102">
                    <masterclipid>masterclip-102</masterclipid>
                    <name>credR_40.png</name>
                    <file id="file-102">
                      <name>credR_40.png</name>
                      <pathurl>file://localhost/C%3a/netrunner/important%20stuff/credits/creditoverlays/credR_40.png</pathurl>
                      <rate>
                        <timebase>30</timebase>
                        <ntsc>TRUE</ntsc>
                      </rate>
                      <media>
                        <video>
                          <duration>18000</duration>
                          <samplecharacteristics>
                            <rate>
                              <timebase>30</timebase>
                              <ntsc>TRUE</ntsc>
                            </rate>
                            <width>1920</width>
                            <height>1080</height>
                            <anamorphic>FALSE</anamorphic>
                            <pixelaspectratio>square</pixelaspectratio>
                            <fielddominance>none</fielddominance>
                            <colordepth>24</colordepth>
                          </samplecharacteristics>
                        </video>
                      </media>
                    </file>
                  </clipitem>
                </track>
              </video>
            </media>
          </clip>
          <clip frameBlend="FALSE" id="masterclip-103">
            <masterclipid>masterclip-103</masterclipid>
            <ismasterclip>TRUE</ismasterclip>
            <duration>150</duration>
            <rate>
              <timebase>30</timebase>
              <ntsc>TRUE</ntsc>
            </rate>
            <name>credL_41.png</name>
            <media>
              <video>
                <track>
                  <clipitem frameBlend="FALSE" id="clipitem-103">
                    <masterclipid>masterclip-103</masterclipid>
                    <name>credL_41.png</name>
                    <file id="file-103">
                      <name>credL_41.png</name>
                      <pathurl>file://localhost/C%3a/netrunner/important%20stuff/credits/creditoverlays/credL_41.png</pathurl>
                      <rate>
                        <timebase>30</timebase>
                        <ntsc>TRUE</ntsc>
                      </rate>
                      <media>
                        <video>
                          <duration>18000</duration>
                          <samplecharacteristics>
                            <rate>
                              <timebase>30</timebase>
                              <ntsc>TRUE</ntsc>
                            </rate>
                            <width>1920</width>
                            <height>1080</height>
                            <anamorphic>FALSE</anamorphic>
                            <pixelaspectratio>square</pixelaspectratio>
                            <fielddominance>none</fielddominance>
                            <colordepth>24</colordepth>
                          </samplecharacteristics>
                        </video>
                      </media>
                    </file>
                  </clipitem>
                </track>
              </video>
            </media>
          </clip>
          <clip frameBlend="FALSE" id="masterclip-104">
            <masterclipid>masterclip-104</masterclipid>
            <ismasterclip>TRUE</ismasterclip>
            <duration>150</duration>
            <rate>
              <timebase>30</timebase>
              <ntsc>TRUE</ntsc>
            </rate>
            <name>credR_41.png</name>
            <media>
              <video>
                <track>
                  <clipitem frameBlend="FALSE" id="clipitem-104">
                    <masterclipid>masterclip-104</masterclipid>
                    <name>credR_41.png</name>
                    <file id="file-104">
                      <name>credR_41.png</name>
                      <pathurl>file://localhost/C%3a/netrunner/important%20stuff/credits/creditoverlays/credR_41.png</pathurl>
                      <rate>
                        <timebase>30</timebase>
                        <ntsc>TRUE</ntsc>
                      </rate>
                      <media>
                        <video>
                          <duration>18000</duration>
                          <samplecharacteristics>
                            <rate>
                              <timebase>30</timebase>
                              <ntsc>TRUE</ntsc>
                            </rate>
                            <width>1920</width>
                            <height>1080</height>
                            <anamorphic>FALSE</anamorphic>
                            <pixelaspectratio>square</pixelaspectratio>
                            <fielddominance>none</fielddominance>
                            <colordepth>24</colordepth>
                          </samplecharacteristics>
                        </video>
                      </media>
                    </file>
                  </clipitem>
                </track>
              </video>
            </media>
          </clip>
          <clip frameBlend="FALSE" id="masterclip-105">
            <masterclipid>masterclip-105</masterclipid>
            <ismasterclip>TRUE</ismasterclip>
            <duration>150</duration>
            <rate>
              <timebase>30</timebase>
              <ntsc>TRUE</ntsc>
            </rate>
            <name>credL_42.png</name>
            <media>
              <video>
                <track>
                  <clipitem frameBlend="FALSE" id="clipitem-105">
                    <masterclipid>masterclip-105</masterclipid>
                    <name>credL_42.png</name>
                    <file id="file-105">
                      <name>credL_42.png</name>
                      <pathurl>file://localhost/C%3a/netrunner/important%20stuff/credits/creditoverlays/credL_42.png</pathurl>
                      <rate>
                        <timebase>30</timebase>
                        <ntsc>TRUE</ntsc>
                      </rate>
                      <media>
                        <video>
                          <duration>18000</duration>
                          <samplecharacteristics>
                            <rate>
                              <timebase>30</timebase>
                              <ntsc>TRUE</ntsc>
                            </rate>
                            <width>1920</width>
                            <height>1080</height>
                            <anamorphic>FALSE</anamorphic>
                            <pixelaspectratio>square</pixelaspectratio>
                            <fielddominance>none</fielddominance>
                            <colordepth>24</colordepth>
                          </samplecharacteristics>
                        </video>
                      </media>
                    </file>
                  </clipitem>
                </track>
              </video>
            </media>
          </clip>
          <clip frameBlend="FALSE" id="masterclip-106">
            <masterclipid>masterclip-106</masterclipid>
            <ismasterclip>TRUE</ismasterclip>
            <duration>150</duration>
            <rate>
              <timebase>30</timebase>
              <ntsc>TRUE</ntsc>
            </rate>
            <name>credR_42.png</name>
            <media>
              <video>
                <track>
                  <clipitem frameBlend="FALSE" id="clipitem-106">
                    <masterclipid>masterclip-106</masterclipid>
                    <name>credR_42.png</name>
                    <file id="file-106">
                      <name>credR_42.png</name>
                      <pathurl>file://localhost/C%3a/netrunner/important%20stuff/credits/creditoverlays/credR_42.png</pathurl>
                      <rate>
                        <timebase>30</timebase>
                        <ntsc>TRUE</ntsc>
                      </rate>
                      <media>
                        <video>
                          <duration>18000</duration>
                          <samplecharacteristics>
                            <rate>
                              <timebase>30</timebase>
                              <ntsc>TRUE</ntsc>
                            </rate>
                            <width>1920</width>
                            <height>1080</height>
                            <anamorphic>FALSE</anamorphic>
                            <pixelaspectratio>square</pixelaspectratio>
                            <fielddominance>none</fielddominance>
                            <colordepth>24</colordepth>
                          </samplecharacteristics>
                        </video>
                      </media>
                    </file>
                  </clipitem>
                </track>
              </video>
            </media>
          </clip>
        </children>
      </bin>
      <sequence MZ.WorkInPoint="0" MZ.WorkOutPoint="15239249625600" id="sequence-1">
        <name>Test Sequence</name>
        <duration>0</duration>
        <rate>
          <timebase>30</timebase>
          <ntsc>TRUE</ntsc>
        </rate>
        <media>
          <video>
            <format>
              <samplecharacteristics>
                <rate>
                  <timebase>30</timebase>
                  <ntsc>TRUE</ntsc>
                </rate>
                <width>1920</width>
                <height>1080</height>
                <anamorphic>FALSE</anamorphic>
                <pixelaspectratio>square</pixelaspectratio>
                <fielddominance>none</fielddominance>
                <colordepth>24</colordepth>
              </samplecharacteristics>
            </format>
            <track MZ.TrackName="Test Track">
              <enabled>TRUE</enabled>
              <locked>FALSE</locked>
            </track>
          </video>
          <audio>
            <format>
              <samplecharacteristics>
                <depth>16</depth>
                <samplerate>48000</samplerate>
              </samplecharacteristics>
            </format>
          </audio>
        </media>
      </sequence>
    </children>
  </project>
</xmeml>
